<svg xmlns="http://www.w3.org/2000/svg" fill="none" viewBox="4 4 16 16">
									<path d="M19.2 20C17.3987 20 15.5927 19.5853 13.782 18.756C11.9713 17.9267 10.303 16.749 8.777 15.223C7.26367 13.6977 6.08933 12.024 5.254 10.202C4.418 8.38 4 6.57933 4 4.8V4H8.438L9.287 8.083L6.59 10.593C7.04667 11.3837 7.51933 12.106 8.008 12.76C8.496 13.4133 9.005 14.003 9.535 14.529C10.0697 15.089 10.6723 15.6123 11.343 16.099C12.0143 16.5857 12.7793 17.0657 13.638 17.539L16.25 14.831L20 15.587V20H19.2ZM6.121 9.654L8.213 7.734L7.635 5H5.005C5.025 5.76267 5.12767 6.531 5.313 7.305C5.49967 8.07833 5.769 8.86133 6.121 9.654ZM14.571 17.988C15.1863 18.2973 15.883 18.5387 16.661 18.712C17.4383 18.8853 18.218 18.9773 19 18.988V16.385L16.612 15.91L14.571 17.988Z" fill="currentColor"></path>
								</svg>