<svg viewBox="0 0 15 16" fill="none" xmlns="http://www.w3.org/2000/svg">
									<path d="M0.664437 15.2579C0.570437 15.1645 0.523438 15.0485 0.523438 14.9099C0.523438 14.7712 0.570104 14.6579 0.663437 14.5699L2.71244 12.5209C2.1791 11.9015 1.7601 11.1999 1.45544 10.4159C1.15077 9.63185 0.998437 8.80085 0.998437 7.92285C0.998437 5.96885 1.67644 4.31385 3.03244 2.95785C4.38977 1.60119 6.0451 0.922852 7.99844 0.922852H14.9984V7.92285C14.9984 9.87685 14.3204 11.5322 12.9644 12.8889C11.6071 14.2449 9.95177 14.9229 7.99844 14.9229C7.12044 14.9229 6.29377 14.7705 5.51844 14.4659C4.7431 14.1612 4.04544 13.7425 3.42544 13.2099L1.35244 15.2579C1.2631 15.3512 1.14944 15.3979 1.01144 15.3979C0.873437 15.3979 0.758437 15.3512 0.664437 15.2579ZM4.73344 11.1859C4.82677 11.2892 4.94177 11.3389 5.07844 11.3349C5.2151 11.3309 5.33144 11.2819 5.42744 11.1879L9.35244 7.28285C9.46244 7.17218 9.51744 7.05318 9.51744 6.92585C9.51744 6.79852 9.4641 6.68152 9.35744 6.57485C9.26077 6.47752 9.14344 6.42885 9.00544 6.42885C8.86677 6.42885 8.75311 6.47552 8.66444 6.56885L4.73344 10.4999C4.6401 10.5905 4.59344 10.7035 4.59344 10.8389C4.59344 10.9742 4.6401 11.0899 4.73344 11.1859Z" fill="#109C29"></path>
								</svg>