<svg viewBox="0 0 20 20" fill="none" xmlns="http://www.w3.org/2000/svg">
				<path d="M18.3987 19.3327H19.332V14.1842L14.957 13.3022L11.9097 16.4604C10.9079 15.9081 10.0154 15.3485 9.2322 14.7815C8.44975 14.2137 7.74664 13.6032 7.12286 12.9499C6.50453 12.3362 5.9107 11.6478 5.34136 10.8848C4.77125 10.1226 4.21981 9.27991 3.68703 8.35668L6.83353 5.42835L5.84303 0.666016H0.665363V1.59935C0.665363 3.67602 1.15303 5.77679 2.12836 7.90168C3.1037 10.0273 4.47375 11.98 6.23853 13.7595C8.01809 15.5398 9.96447 16.9138 12.0777 17.8814C14.1901 18.8489 16.2971 19.3327 18.3987 19.3327ZM3.13986 7.26235C2.72842 6.33757 2.4142 5.42368 2.1972 4.52068C1.98097 3.61846 1.86159 2.72246 1.83903 1.83268H4.9062L5.58053 5.02352L3.13986 7.26235ZM12.9982 16.9854L15.3782 14.561L18.1654 15.1152V18.152C17.253 18.1388 16.343 18.0315 15.4354 17.83C14.5285 17.6278 13.7161 17.3462 12.9982 16.9854Z" fill="currentColor"></path>
			</svg>