<svg width="75" height="75" viewBox="0 0 75 75" fill="none" xmlns="http://www.w3.org/2000/svg">
						<rect width="75" height="75" rx="37.5" fill="black"></rect>
						<path d="M57.1814 31.9561L60.9062 27.9029H52.6528C48.3728 24.9896 43.3151 23.4316 38.1377 23.4316C32.9602 23.4316 27.9025 24.9896 23.6225 27.9029H15.3438L19.0686 31.9561C16.8525 34.0008 15.5381 36.8413 15.414 39.8541C15.2899 42.8669 16.3663 45.8058 18.4067 48.0259C20.4472 50.246 23.2852 51.5658 26.2977 51.6956C29.3103 51.8255 32.2513 50.7548 34.4753 48.7185L38.125 52.6894L41.7724 48.7209C43.3971 50.2263 45.4256 51.2251 47.6095 51.595C49.7933 51.9649 52.0377 51.6898 54.0675 50.8034C56.0974 49.9169 57.8246 48.4577 59.0376 46.6044C60.2506 44.7511 60.8967 42.5843 60.8968 40.3693H60.8944C60.8964 38.7856 60.5671 37.219 59.9276 35.7701C59.2882 34.3211 58.3527 33.022 57.1814 31.9561ZM26.7391 48.0731C25.2155 48.0731 23.726 47.6212 22.4592 46.7747C21.1923 45.9282 20.2049 44.7251 19.6218 43.3174C19.0388 41.9098 18.8862 40.3608 19.1834 38.8664C19.4807 37.3721 20.2144 35.9994 21.2918 34.922C22.3692 33.8446 23.7418 33.1109 25.2362 32.8137C26.7306 32.5164 28.2795 32.669 29.6872 33.2521C31.0949 33.8351 32.298 34.8225 33.1445 36.0894C33.991 37.3563 34.4428 38.8457 34.4428 40.3693C34.4428 42.4125 33.6312 44.372 32.1865 45.8167C30.7417 47.2614 28.7823 48.0731 26.7391 48.0731ZM38.125 40.1471C38.125 35.0775 34.4373 30.7277 29.5749 28.868C32.284 27.7391 35.1898 27.1579 38.1246 27.1579C41.0595 27.1579 43.9652 27.7391 46.6743 28.868C41.8119 30.7285 38.125 35.0782 38.125 40.1471ZM49.5061 48.0731H49.5053C47.4619 48.0729 45.5022 47.2611 44.0573 45.8161C42.6125 44.3712 41.8008 42.4114 41.8008 40.368C41.8009 38.3245 42.6127 36.3648 44.0576 34.9199C45.5026 33.475 47.4623 32.6633 49.5057 32.6633C51.5492 32.6633 53.5089 33.475 54.9538 34.9199C56.3988 36.3648 57.2106 38.3245 57.2106 40.368C57.2107 42.4114 56.399 44.3712 54.9541 45.8161C53.5093 47.2611 51.5496 48.0729 49.5061 48.0731ZM26.7391 36.3304H26.7383C25.9395 36.3304 25.1586 36.5673 24.4944 37.0111C23.8302 37.4549 23.3125 38.0857 23.0068 38.8237C22.7012 39.5617 22.6212 40.3738 22.777 41.1573C22.9329 41.9408 23.3175 42.6604 23.8824 43.2253C24.4472 43.7902 25.1669 44.1748 25.9504 44.3307C26.7338 44.4865 27.5459 44.4065 28.284 44.1008C29.022 43.7951 29.6528 43.2775 30.0966 42.6133C30.5404 41.9491 30.7773 41.1682 30.7773 40.3693V40.3606C30.7767 39.8309 30.6719 39.3064 30.4687 38.8171C30.2654 38.3279 29.9679 37.8835 29.5929 37.5092C29.2179 37.135 28.7729 36.8382 28.2832 36.636C27.7936 36.4337 27.2689 36.3299 26.7391 36.3304ZM49.5061 36.3304C48.7073 36.3304 47.9264 36.5673 47.2622 37.0111C46.598 37.4549 46.0803 38.0857 45.7747 38.8237C45.469 39.5617 45.389 40.3738 45.5448 41.1573C45.7007 41.9408 46.0853 42.6604 46.6502 43.2253C47.215 43.7902 47.9347 44.1748 48.7182 44.3307C49.5017 44.4865 50.3137 44.4065 51.0518 44.1008C51.7898 43.7951 52.4206 43.2775 52.8644 42.6133C53.3082 41.9491 53.5451 41.1682 53.5451 40.3693C53.5451 39.2982 53.1195 38.2708 52.3621 37.5134C51.6046 36.756 50.5773 36.3304 49.5061 36.3304Z" fill="white"></path>
					</svg>