<svg width="75" height="75" viewBox="0 0 75 75" fill="none" xmlns="http://www.w3.org/2000/svg">
						<g clip-path="url(#clip0_54_55)">
							<path d="M54.1667 0C59.692 0 64.991 2.19493 68.8981 6.10194C72.8051 10.0089 75 15.308 75 20.8333V54.1667C75 59.692 72.8051 64.991 68.8981 68.8981C64.991 72.8051 59.692 75 54.1667 75H20.8333C15.308 75 10.0089 72.8051 6.10194 68.8981C2.19493 64.991 0 59.692 0 54.1667V20.8333C0 15.308 2.19493 10.0089 6.10194 6.10194C10.0089 2.19493 15.308 0 20.8333 0H54.1667ZM37.5 20.8333C33.0797 20.8333 28.8405 22.5893 25.7149 25.7149C22.5893 28.8405 20.8333 33.0797 20.8333 37.5C20.8333 41.9203 22.5893 46.1595 25.7149 49.2851C28.8405 52.4107 33.0797 54.1667 37.5 54.1667C41.9203 54.1667 46.1595 52.4107 49.2851 49.2851C52.4107 46.1595 54.1667 41.9203 54.1667 37.5C54.1667 33.0797 52.4107 28.8405 49.2851 25.7149C46.1595 22.5893 41.9203 20.8333 37.5 20.8333ZM37.5 29.1667C39.7101 29.1667 41.8297 30.0446 43.3926 31.6074C44.9554 33.1702 45.8333 35.2899 45.8333 37.5C45.8333 39.7101 44.9554 41.8297 43.3926 43.3926C41.8297 44.9554 39.7101 45.8333 37.5 45.8333C35.2899 45.8333 33.1702 44.9554 31.6074 43.3926C30.0446 41.8297 29.1667 39.7101 29.1667 37.5C29.1667 35.2899 30.0446 33.1702 31.6074 31.6074C33.1702 30.0446 35.2899 29.1667 37.5 29.1667ZM56.25 14.5833C55.1449 14.5833 54.0851 15.0223 53.3037 15.8037C52.5223 16.5851 52.0833 17.6449 52.0833 18.75C52.0833 19.8551 52.5223 20.9149 53.3037 21.6963C54.0851 22.4777 55.1449 22.9167 56.25 22.9167C57.3551 22.9167 58.4149 22.4777 59.1963 21.6963C59.9777 20.9149 60.4167 19.8551 60.4167 18.75C60.4167 17.6449 59.9777 16.5851 59.1963 15.8037C58.4149 15.0223 57.3551 14.5833 56.25 14.5833Z" fill="black"></path>
						</g>
						<defs>
							<clipPath id="clip0_54_55">
								<rect width="75" height="75" fill="white"></rect>
							</clipPath>
						</defs>
					</svg>