<?xml version="1.0" encoding="UTF-8"?> <svg xmlns="http://www.w3.org/2000/svg" width="3101" height="1063" viewBox="0 0 3101 1063" fill="none"><g clip-path="url(#clip0_76_200)"><mask id="mask0_76_200" style="mask-type:luminance" maskUnits="userSpaceOnUse" x="86" y="206" width="640" height="641"><path d="M725.822 206.091H86.25V846.467H725.822V206.091Z" fill="white"></path></mask><g mask="url(#mask0_76_200)"><path d="M152.657 295.621C152.945 295.621 153.178 295.388 153.178 295.1C153.178 294.815 152.945 294.581 152.657 294.581C152.373 294.581 152.139 294.815 152.139 295.1C152.139 295.388 152.373 295.621 152.657 295.621Z" fill="white"></path><path d="M352.978 314.711V390.751H387.112V308.883V287.158V274.706C305.613 280.798 234.694 325.575 193.15 390.751H235.223C264.597 353.66 305.613 326.371 352.978 314.711Z" fill="white"></path><path d="M152.658 295.621C152.918 295.621 153.176 295.361 153.176 295.1C153.176 294.842 152.918 294.581 152.658 294.581C152.397 294.581 152.137 294.842 152.137 295.1C152.137 295.361 152.397 295.621 152.658 295.621Z" fill="white"></path><path d="M635.056 424.934H616.533H599.862H455.912V313.921C504.602 325.314 547.204 352.867 577.37 390.757H616.799C574.988 325.314 503.807 280.803 422.041 275.238V294.581V308.888V424.934V459.111H456.178H614.68C620.238 476.069 623.943 493.82 625.001 512.101H542.175H508.041H421.778V546.28H508.041V599.268H421.778V633.448H508.041V722.47C477.609 738.366 442.946 747.638 406.165 747.638C399.815 747.638 393.462 747.375 387.112 746.845V458.847V424.934H352.978H212.731H192.621H174.892C161.131 456.197 153.458 490.64 153.458 526.938C153.458 590.792 177.007 649.078 216.171 693.589V635.036C197.913 603.244 187.594 566.15 187.594 526.938C187.594 503.092 191.297 480.308 198.442 458.847H267.507V737.836C278.357 744.99 289.734 751.082 301.641 756.647V458.847H353.241V772.809C353.507 772.809 354.036 773.073 354.299 773.073C359.328 774.134 364.354 774.927 369.383 775.723C369.649 775.723 370.178 775.723 370.441 775.989C372.823 776.253 375.47 776.519 377.852 776.782C378.115 776.782 378.381 776.782 378.644 776.782C381.291 777.049 383.936 777.312 386.583 777.578C386.846 777.578 387.112 777.578 387.112 777.578C392.933 778.108 398.754 778.108 404.841 778.108C543.765 778.108 656.225 665.24 656.225 526.408C656.225 490.376 648.817 455.933 635.056 424.934ZM542.175 546.014H624.735C623.149 564.295 619.443 582.046 613.622 599.004H542.175V546.014ZM542.175 699.949V633.181H598.538C584.249 658.882 564.933 681.666 542.175 699.949Z" fill="white"></path><path d="M406.173 206.357C229.41 206.357 86.5186 349.429 86.5186 526.148C86.5186 702.866 229.676 846.204 406.173 846.204C582.67 846.204 725.828 702.866 725.828 526.148C725.828 349.429 582.67 206.357 406.173 206.357ZM406.173 812.024C248.463 812.024 120.655 684.056 120.655 526.148C120.655 368.239 248.463 240.534 406.173 240.534C563.883 240.534 691.428 368.503 691.428 526.148C691.428 683.79 563.62 812.024 406.173 812.024Z" fill="white"></path></g><mask id="mask1_76_200" style="mask-type:luminance" maskUnits="userSpaceOnUse" x="891" y="316" width="2151" height="414"><path d="M3041.63 316.77H891.637V729.615H3041.63V316.77Z" fill="white"></path></mask><g mask="url(#mask1_76_200)"><path d="M1079.64 725.582H1030.61L1037.71 499.395C1037.87 493.86 1038.35 477.97 1039.21 451.802H1035.19C1034.16 463.581 1032.5 479.156 1030.13 498.366C1029.11 504.928 1017.19 580.666 994.286 725.582H977.626L942.727 498.366C941.542 491.489 939.724 475.914 937.199 451.802H933.171L935.224 499.395L941.306 725.582H891.64V320.8H949.281L982.601 537.896C983.233 542.641 984.101 551.731 985.126 565.251H987.18C987.654 558.371 988.365 549.202 989.233 537.896C989.708 533.548 1000.68 461.131 1022.08 320.8H1079.72V725.582H1079.64Z" fill="white"></path><path d="M1241.83 725.582H1191.76L1186.71 650.712H1149.84L1144.78 725.582H1094.25L1141.78 320.8H1194.85L1241.83 725.582ZM1180.16 597.032L1172.1 444.765C1171.63 436.701 1171.08 423.024 1170.6 403.812H1166.58C1166.26 413.062 1165.71 426.739 1165.08 444.765C1164.6 453.858 1161.68 504.613 1156.47 597.032H1180.24H1180.16Z" fill="white"></path><path d="M1329 725.582H1252.72V673.482H1265.35V372.899H1252.72V320.8H1329V372.899H1316.36V673.482H1329V725.582Z" fill="white"></path><path d="M1480.84 637.589C1480.84 670.161 1470.65 694.275 1450.28 709.927C1436.62 720.364 1422.56 725.582 1408.11 725.582H1347.47V320.8H1408.11C1456.59 320.8 1480.91 352.66 1480.91 416.462V637.589H1480.84ZM1431.33 639.091V417.489C1431.33 403.339 1430.07 393.377 1427.54 387.606C1423.51 378.513 1415.3 373.928 1403.06 373.928H1396.51V674.509H1403.06C1412.14 674.509 1419.33 670.715 1424.54 663.127C1429.12 656.405 1431.33 648.341 1431.33 639.091Z" fill="white"></path><path d="M1611.98 725.582H1506.89V320.8H1608.43V372.899H1556.4V483.187H1602.35V535.286H1556.4V673.404H1611.98V725.503V725.582Z" fill="white"></path><path d="M1773.7 725.582H1721.11L1681.71 508.013C1680.37 501.133 1679.18 491.489 1678.16 479.156H1675.16L1675.63 509.039C1676.81 553.075 1678.31 625.256 1680.21 725.582H1631.73V320.8H1684.31L1723.72 535.84C1724.9 542.798 1726.08 553.233 1727.27 567.228H1730.27L1729.79 535.84L1725.22 320.8H1773.7V725.582Z" fill="white"></path><path d="M1846.73 725.582H1799.75V658.304H1846.73V725.582Z" fill="white"></path><path d="M1991.55 624.39C1991.55 694.593 1969.99 729.617 1926.88 729.617C1906.51 729.617 1890.79 720.525 1879.9 702.263C1870.66 686.926 1865.92 667.871 1865.76 645.104L1865.29 593.477H1914.32V644.55C1914.32 666.845 1918.9 677.912 1927.98 677.912C1936.43 677.912 1941.48 669.691 1943.14 653.089C1944.64 639.569 1944.01 621.701 1941.09 599.487C1938.72 580.275 1930.9 561.935 1917.56 544.621C1897.19 518.135 1885.74 502.559 1883.21 497.817C1871.6 476.077 1865.76 448.879 1865.76 416.386C1865.76 349.977 1887.63 316.693 1931.46 316.693C1970.22 316.693 1989.57 343.891 1989.57 398.125V441.606H1943.06V413.304C1943.06 398.124 1942.9 388.953 1942.59 385.71C1940.93 371.875 1936.67 365.077 1929.96 365.235C1918.82 365.392 1913.29 381.126 1913.29 412.274C1913.29 437.101 1920.01 459.314 1933.51 479.08C1946.14 496.63 1958.78 514.102 1971.41 531.416C1984.91 556.242 1991.62 587.154 1991.62 624.232L1991.55 624.39Z" fill="white"></path><path d="M2147.18 725.582H2096.16V538.844H2062.29V725.582H2011.28V320.8H2062.29V485.718H2096.16V320.8H2147.18V725.582Z" fill="white"></path><path d="M2309.36 725.582H2259.29L2254.24 650.712H2217.38L2212.31 725.582H2161.77L2209.32 320.8H2262.38L2309.36 725.582ZM2247.68 597.032L2239.62 444.765C2239.16 436.701 2238.62 423.024 2238.13 403.812H2234.12C2233.79 413.062 2233.25 426.739 2232.6 444.765C2232.14 453.858 2229.21 504.613 2224 597.032H2247.76H2247.68Z" fill="white"></path><path d="M2466.01 725.582H2413.44L2374.03 508.013C2372.67 501.133 2371.5 491.489 2370.47 479.156H2367.46L2367.95 509.039C2369.12 553.075 2370.64 625.256 2372.53 725.582H2324.04V320.8H2376.63L2416.04 535.84C2417.21 542.798 2418.4 553.233 2419.6 567.228H2422.58L2422.12 535.84L2417.54 320.8H2466.01V725.582Z" fill="white"></path><path d="M2630.25 725.582H2611.53L2600.41 701.313C2589.1 720.207 2574.81 729.615 2557.45 729.615C2540.09 729.615 2524.6 723.447 2512.99 711.115C2499.89 697.28 2493.24 677.831 2493.24 652.69V402.313C2493.24 379.067 2498.86 359.54 2510.14 343.888C2522.94 325.863 2540.87 316.849 2564.01 316.849C2608.14 316.849 2630.17 345.39 2630.17 402.392V450.933H2581.7V405.871C2581.7 379.228 2575.76 365.865 2564.01 365.865C2550.5 365.865 2543.77 378.674 2543.77 404.287V643.6C2543.77 666.527 2550.5 677.989 2564.01 677.989C2575.76 677.989 2581.7 666.527 2581.7 643.6V557.584H2565.5V504.456H2630.17V725.582H2630.25Z" fill="white"></path><path d="M2792.27 725.582H2741.27V538.844H2707.39V725.582H2656.37V320.8H2707.39V485.718H2741.27V320.8H2792.27V725.582Z" fill="white"></path><path d="M2954.45 725.582H2904.4L2899.36 650.712H2862.47L2857.42 725.582H2806.89L2854.41 320.8H2907.47L2954.45 725.582ZM2892.79 597.032L2884.74 444.765C2884.27 436.701 2883.71 423.024 2883.24 403.812H2879.2C2878.9 413.062 2878.33 426.739 2877.71 444.765C2877.25 453.858 2874.32 504.613 2869.11 597.032H2892.87H2892.79Z" fill="white"></path><path d="M3041.63 725.582H2965.35V673.482H2977.99V372.899H2965.35V320.8H3041.63V372.899H3028.99V673.482H3041.63V725.582Z" fill="white"></path></g></g><defs><clipPath id="clip0_76_200"><rect width="3101" height="1063" fill="white"></rect></clipPath></defs></svg> 