<svg width="540" height="80" viewBox="0 0 540 80" fill="none" xmlns="http://www.w3.org/2000/svg">
<g clip-path="url(#clip0_3_9327)">
<rect x="-271" width="955" height="84" fill="#EBE9E7"/>
<path d="M75.9264 -34.3819L-3.41016 -72.4658V3.70204L75.9264 -34.3819Z" fill="#E6E1DC"/>
<path d="M155.263 -34.3819L75.9268 -72.4658V3.70204L155.263 -34.3819Z" fill="#E6E1DC"/>
<path d="M234.6 -34.3819L155.264 -72.4658V3.70204L234.6 -34.3819Z" fill="#E6E1DC"/>
<path d="M313.937 -34.3819L234.601 -72.4658V3.70204L313.937 -34.3819Z" fill="#E6E1DC"/>
<path d="M393.271 -34.3819L313.935 -72.4658V3.70204L393.271 -34.3819Z" fill="#E6E1DC"/>
<path d="M75.9264 41.7851L-3.41016 3.70117V79.869L75.9264 41.7851Z" fill="#E6E1DC"/>
<path d="M155.263 41.7851L75.9268 3.70117V79.869L155.263 41.7851Z" fill="#E6E1DC"/>
<path d="M234.6 41.7861L155.264 3.70215V79.87L234.6 41.7861Z" fill="#E6E1DC"/>
<path d="M313.937 41.7861L234.601 3.70215V79.87L313.937 41.7861Z" fill="#E6E1DC"/>
<path d="M393.271 41.7861L313.935 3.70215V79.87L393.271 41.7861Z" fill="#E6E1DC"/>
<path d="M75.9264 117.954L-3.41016 79.8701V156.038L75.9264 117.954Z" fill="#E6E1DC"/>
<path d="M155.263 117.954L75.9268 79.8701V156.038L155.263 117.954Z" fill="#E6E1DC"/>
<path d="M234.6 117.954L155.264 79.8701V156.038L234.6 117.954Z" fill="#E6E1DC"/>
<path d="M313.937 117.954L234.601 79.8701V156.038L313.937 117.954Z" fill="#E6E1DC"/>
<path d="M393.271 117.954L313.935 79.8701V156.038L393.271 117.954Z" fill="#E6E1DC"/>
<path d="M472.741 -34.3816L393.404 -72.4656V3.70229L472.741 -34.3816Z" fill="#E6E1DC"/>
<path d="M552.078 -34.3819L472.741 -72.4658V3.70204L552.078 -34.3819Z" fill="#E6E1DC"/>
<path d="M472.741 41.7861L393.404 3.70215V79.87L472.741 41.7861Z" fill="#E6E1DC"/>
<path d="M552.078 41.7861L472.741 3.70215V79.87L552.078 41.7861Z" fill="#E6E1DC"/>
<path d="M472.741 117.954L393.404 79.8699V156.038L472.741 117.954Z" fill="#E6E1DC"/>
<path d="M552.078 117.954L472.741 79.8701V156.038L552.078 117.954Z" fill="#E6E1DC"/>
</g>
<defs>
<clipPath id="clip0_3_9327">
<rect width="540" height="80" fill="white"/>
</clipPath>
</defs>
</svg>
