<?xml version="1.0" encoding="UTF-8"?> <svg xmlns="http://www.w3.org/2000/svg" width="160" height="59" viewBox="0 0 160 59" fill="none"><path d="M90.9864 19.9353C91.9688 20.5103 92.4961 21.0541 93.1199 22.0507C93.2257 21.376 93.3315 20.7012 93.4398 20.0059C95.7632 20.0059 98.0866 20.0059 100.48 20.0059C100.48 20.3433 100.48 20.6807 100.48 21.0283C99.4239 21.0283 98.3678 21.0283 97.2801 21.0283C97.3854 30.363 97.4911 39.6977 97.6 49.3153C98.4446 49.3153 99.2898 49.3153 100.16 49.3153C100.265 49.7651 100.371 50.215 100.48 50.6785C97.1006 50.6785 93.7215 50.6785 90.2398 50.6785C90.3982 50.0037 90.3982 50.0037 90.5602 49.3153C91.5106 49.3153 92.461 49.3153 93.4398 49.3153C93.3346 45.2665 93.2288 41.2177 93.1199 37.0462C92.4863 37.6086 91.8527 38.1709 91.2 38.7503C89.4994 39.7257 87.8117 39.6216 85.98 39.1124C83.5488 38.1652 81.5845 36.1172 80.2802 33.766C79.2287 31.1812 79.2426 28.3392 80.0124 25.6692C81.1465 22.9776 82.7558 21.2392 85.2412 19.9526C87.0238 19.3414 89.2058 19.2906 90.9864 19.9353ZM85.1199 22.0507C83.9817 24.5254 84.0163 26.849 84.04 29.5698C84.0364 29.9927 84.0328 30.4155 84.0287 30.8512C84.0369 33.5416 84.1638 35.3326 85.6911 37.5255C86.6461 38.2573 87.2921 38.2506 88.4603 38.2391C88.8158 38.2426 89.1718 38.2461 89.5386 38.2497C90.7651 38.0323 91.2852 37.6306 92.1602 36.7054C93.8959 33.0737 94.0476 28.0661 93.0601 24.1382C92.5947 22.7927 91.9554 21.916 90.8801 21.0283C88.8343 20.3022 86.5801 20.166 85.1199 22.0507Z" fill="black"></path><path d="M109.12 20.0074C111.443 20.0074 113.767 20.0074 116.16 20.0074C116.176 21.0869 116.191 22.1663 116.208 23.2784C116.225 24.3286 116.244 25.3787 116.262 26.4288C116.274 27.1563 116.285 27.8839 116.295 28.6114C116.31 29.6597 116.329 30.7078 116.348 31.756C116.351 32.0791 116.355 32.4023 116.359 32.7352C116.396 34.5239 116.575 36.0347 117.12 37.7294C119.525 37.9367 119.525 37.9367 121.74 37.0691C124.185 33.9575 124.049 30.6701 124.08 26.8023C124.089 26.2416 124.099 25.6809 124.109 25.1202C124.133 23.7568 124.149 22.3935 124.16 21.0299C123.21 21.0299 122.26 21.0299 121.28 21.0299C121.28 20.6925 121.28 20.3551 121.28 20.0074C122.394 19.9976 123.507 19.9915 124.62 19.9862C125.097 19.9819 125.097 19.9819 125.583 19.9775C126.036 19.9758 126.036 19.9758 126.499 19.9742C126.919 19.9715 126.919 19.9715 127.347 19.9688C128 20.0074 128 20.0074 128.32 20.3483C128.35 20.8923 128.358 21.4376 128.357 21.9825C128.357 22.3305 128.357 22.6784 128.356 23.0369C128.355 23.4153 128.353 23.7938 128.352 24.1837C128.351 24.569 128.351 24.9543 128.35 25.3513C128.349 26.5876 128.344 27.8238 128.34 29.0602C128.339 29.896 128.337 30.7318 128.336 31.5676C128.333 33.6215 128.327 35.6755 128.32 37.7294C129.271 37.7294 130.221 37.7294 131.2 37.7294C131.2 38.0668 131.2 38.4042 131.2 38.7518C128.877 38.7518 126.554 38.7518 124.16 38.7518C124.002 37.571 124.002 37.571 123.84 36.3662C123.609 36.6262 123.378 36.8863 123.14 37.1543C121.628 38.693 120.398 39.3468 118.34 39.5187C116.407 39.3836 114.862 38.9038 113.3 37.6655C111.91 35.6467 111.908 33.2931 111.938 30.8813C111.939 30.5977 111.939 30.3142 111.94 30.022C111.944 29.1262 111.952 28.2306 111.96 27.3348C111.964 26.7233 111.966 26.1118 111.969 25.5003C111.976 24.0101 111.987 22.52 112 21.0299C111.05 21.0299 110.099 21.0299 109.12 21.0299C109.12 20.6925 109.12 20.3551 109.12 20.0074Z" fill="black"></path><path d="M64.7611 20.6154C65.8591 21.4885 66.4509 22.3839 66.8801 23.7545C66.9075 24.22 66.9178 24.6868 66.9163 25.1532C66.9163 25.4329 66.9163 25.7126 66.9163 26.0007C66.9147 26.3011 66.9132 26.6015 66.9111 26.911C66.9106 27.2196 66.9106 27.5284 66.9101 27.8464C66.908 28.8326 66.9039 29.8188 66.9003 30.8049C66.8982 31.4734 66.8972 32.142 66.8956 32.8105C66.892 34.4495 66.8868 36.0885 66.8801 37.7275C67.8305 37.7275 68.781 37.7275 69.7602 37.7275C69.7602 38.065 69.7602 38.4024 69.7602 38.75C66.4865 38.75 63.2127 38.75 59.8398 38.75C59.8398 38.4126 59.8398 38.0752 59.8398 37.7275C60.896 37.7275 61.9522 37.7275 63.0398 37.7275C63.0182 35.6716 62.9898 33.6158 62.9563 31.56C62.9454 30.8609 62.9366 30.1617 62.9294 29.4626C62.9186 28.4566 62.9016 27.4509 62.884 26.445C62.882 26.1332 62.8799 25.8215 62.8778 25.5003C62.8422 23.8571 62.7793 22.6935 61.7602 21.3688C60.7768 20.8454 59.9673 20.9509 58.8801 21.028C56.9943 21.7913 55.773 22.8997 54.8474 24.8155C54.0533 27.1716 54.2143 29.7997 54.1802 32.2747C54.1694 32.8041 54.1586 33.3335 54.1467 33.8629C54.1199 35.1511 54.0982 36.4392 54.0801 37.7275C55.1358 37.7275 56.192 37.7275 57.2801 37.7275C57.2801 38.065 57.2801 38.4024 57.2801 38.75C53.9006 38.75 50.5217 38.75 47.04 38.75C47.04 38.4126 47.04 38.0752 47.04 37.7275C48.096 37.7275 49.152 37.7275 50.24 37.7275C50.24 32.2167 50.24 26.7059 50.24 21.028C49.184 21.028 48.128 21.028 47.04 21.028C47.04 20.6907 47.04 20.3532 47.04 20.0056C49.3632 20.0056 51.6866 20.0056 54.0801 20.0056C54.1854 21.0178 54.2912 22.03 54.4 23.0729C54.7468 22.5984 54.7468 22.5984 55.1002 22.1144C57.42 19.1549 61.671 18.6856 64.7611 20.6154Z" fill="black"></path><path d="M153.919 20.5521C155.656 21.8432 157.035 23.5493 157.44 25.8C157.44 26.5872 157.44 27.3745 157.44 28.1856C153.427 28.1856 149.415 28.1856 145.28 28.1856C145.234 33.0668 145.234 33.0668 147.265 37.1065C148.344 37.8564 148.961 37.9012 150.24 37.8773C150.593 37.8769 150.946 37.8764 151.31 37.8759C152.408 37.7153 153.007 37.3512 153.92 36.7057C154.131 36.7057 154.342 36.7057 154.56 36.7057C154.698 36.3262 154.698 36.3262 154.84 35.939C155.143 35.1491 155.471 34.3954 155.84 33.6385C156.262 33.6385 156.685 33.6385 157.12 33.6385C156.823 35.805 155.926 36.8037 154.356 38.1821C152.574 39.5219 150.593 39.6638 148.48 39.4322C145.87 38.9186 143.741 37.8438 142.146 35.5342C140.66 33.0076 140.242 30.8119 140.48 27.8448C141.175 24.7589 142.94 22.5637 145.28 20.6879C147.823 19.0414 151.29 19.0979 153.919 20.5521ZM146.63 21.8154C145.518 23.4586 145.28 25.1793 145.28 27.1632C147.815 27.1632 150.349 27.1632 152.96 27.1632C152.911 26.1193 152.911 26.1193 152.86 25.0544C152.842 24.663 152.823 24.2716 152.804 23.8682C152.631 22.6713 152.352 21.9955 151.68 21.0286C149.995 20.1316 147.982 20.4115 146.63 21.8154Z" fill="black"></path><path d="M16.38 20.24C17.4999 20.8824 18.2494 21.5289 18.8799 22.7321C19.1578 23.9371 19.3199 24.7443 18.94 25.9272C18.5599 26.481 18.5599 26.481 17.9199 26.8218C15.8493 26.9421 15.8493 26.9421 14.7199 26.1402C14.7468 25.8529 14.7736 25.5656 14.8012 25.2695C14.8338 24.8961 14.8664 24.5227 14.8999 24.1379C14.9333 23.7663 14.9668 23.3946 15.0012 23.0117C15.1124 22.067 15.1124 22.067 14.7199 21.3689C13.3185 20.8714 12.0233 20.829 10.5599 21.0281C9.27278 21.726 8.86326 22.1669 8.31118 23.5642C7.20996 27.5367 7.09309 32.5505 8.75996 36.3431C9.3478 37.1377 9.67982 37.3648 10.5599 37.7276C11.5541 37.8483 11.5541 37.8483 12.6199 37.8341C12.9759 37.8398 13.3319 37.8455 13.6987 37.8514C14.8172 37.7158 15.3955 37.3632 16.3199 36.7052C16.5311 36.7052 16.5823 36.5348 16.7999 36.5348C16.9385 36.1552 17.0985 36.3256 17.24 35.9384C17.5433 35.1486 17.8714 34.3948 18.2399 33.6379C18.5567 33.6379 18.8735 33.6379 19.1999 33.6379C19.1224 35.3301 18.6305 36.3071 17.5787 37.5186C16.1295 38.8064 14.3229 39.4923 12.44 39.5594C9.52431 39.259 6.92117 38.4499 4.85994 36.1301C2.97687 33.6484 2.57351 30.9763 2.87994 27.8442C3.35509 25.2338 4.51613 22.9997 6.56242 21.4381C9.52214 19.5082 13.0533 18.7731 16.38 20.24Z" fill="black"></path><path d="M28.48 20.0059C30.8032 20.0059 33.1264 20.0059 35.52 20.0059C35.52 25.7417 35.52 31.4775 35.52 37.387C36.4704 37.4995 37.4208 37.612 38.4 37.7278C38.4 38.0652 38.4 38.4027 38.4 38.7502C35.1264 38.7502 31.8528 38.7502 28.48 38.7502C28.48 38.4129 28.48 38.0755 28.48 37.7278C29.536 37.7278 30.592 37.7278 31.68 37.7278C31.68 32.217 31.68 26.7061 31.68 21.0283C30.624 21.0283 29.568 21.0283 28.48 21.0283C28.48 20.6909 28.48 20.3535 28.48 20.0059Z" fill="black"></path><path d="M17.92 45.5668C17.8745 46.1633 17.8276 46.7597 17.78 47.356C17.754 47.6882 17.728 48.0203 17.7012 48.3625C17.6155 49.1697 17.4733 49.8963 17.28 50.6789C17.0977 50.6548 16.9154 50.6307 16.7276 50.6058C14.4407 50.3301 12.1799 50.287 9.87996 50.2955C9.519 50.2942 9.15808 50.2929 8.78623 50.2915C6.89347 50.2939 5.07118 50.3719 3.19995 50.6789C3.43279 49.1083 4.23088 48.4867 5.33743 47.5025C9.14565 44.5665 13.4831 45.1121 17.92 45.5668Z" fill="black"></path><path d="M34.56 8.07814C35.335 8.60093 35.4839 8.99632 35.8 9.91C35.8518 11.0675 35.5073 11.5835 34.88 12.5086C34.56 12.8495 34.56 12.8495 33.5 12.956C32.32 12.8495 32.32 12.8495 31.54 12.2956C30.8891 11.2419 30.846 10.6807 31.04 9.44135C31.983 7.91487 32.9166 7.85536 34.56 8.07814Z" fill="black"></path><path d="M28.4812 50.6869V45.3047H30.0994C30.4552 45.3047 30.7522 45.3739 30.9905 45.5123C31.2304 45.649 31.4107 45.8391 31.5315 46.0826C31.6539 46.3244 31.7151 46.6021 31.7151 46.9157C31.7151 47.2293 31.6539 47.5061 31.5315 47.7462C31.4107 47.9861 31.2312 48.1736 30.9929 48.3085C30.7546 48.4434 30.4592 48.5109 30.1067 48.5109H28.7285V48.0615H30.0945C30.3556 48.0615 30.5727 48.015 30.7457 47.9222C30.9203 47.8294 31.0501 47.6971 31.1349 47.5253C31.2214 47.3537 31.2647 47.1504 31.2647 46.9157C31.2647 46.6809 31.2214 46.4759 31.1349 46.3007C31.0484 46.1237 30.9178 45.9871 30.7432 45.8907C30.5702 45.7944 30.3515 45.7462 30.0871 45.7462H28.939V50.6869H28.4812ZM30.6918 48.2586L31.9257 50.6869H31.3969L30.1753 48.2586H30.6918Z" fill="black"></path><path d="M33.2879 45.3047V50.6869H32.8301V45.3047H33.2879Z" fill="black"></path><path d="M37.3432 46.6503C37.3155 46.3507 37.1923 46.1124 36.9736 45.9355C36.7549 45.7585 36.4799 45.67 36.1486 45.67C35.9152 45.67 35.7096 45.7129 35.5317 45.7988C35.3554 45.8847 35.2167 46.0038 35.1155 46.1562C35.0159 46.3069 34.9662 46.4786 34.9662 46.6713C34.9662 46.8132 34.9947 46.9376 35.0518 47.0445C35.109 47.1514 35.1857 47.2434 35.282 47.3204C35.3799 47.3958 35.4876 47.4606 35.6051 47.5149C35.7242 47.5692 35.8442 47.6148 35.965 47.6516L36.4937 47.8145C36.6537 47.8618 36.8136 47.9223 36.9736 47.9959C37.1335 48.0694 37.2796 48.1623 37.4118 48.2744C37.5456 48.3848 37.6525 48.5206 37.7325 48.6817C37.8141 48.8412 37.8549 49.033 37.8549 49.2573C37.8549 49.5446 37.7855 49.803 37.6468 50.0326C37.5081 50.2621 37.309 50.4443 37.0495 50.5792C36.79 50.7124 36.4791 50.7789 36.1168 50.7789C35.7757 50.7789 35.4794 50.7185 35.2281 50.5976C34.9768 50.475 34.7793 50.3059 34.6357 50.0904C34.4921 49.8749 34.4113 49.6252 34.3933 49.3414H34.8634C34.8797 49.5534 34.9449 49.733 35.0592 49.8801C35.1734 50.0273 35.3219 50.1394 35.5047 50.2165C35.6875 50.2919 35.8915 50.3296 36.1168 50.3296C36.3665 50.3296 36.5884 50.2849 36.7826 50.1955C36.9785 50.1044 37.1319 49.9782 37.2429 49.8171C37.3555 49.6541 37.4118 49.4649 37.4118 49.2494C37.4118 49.0672 37.3677 48.9148 37.2796 48.7922C37.1915 48.6677 37.0683 48.5635 36.9099 48.4794C36.7533 48.3953 36.5713 48.3209 36.364 48.256L35.7642 48.0668C35.3709 47.9406 35.0657 47.7663 34.8486 47.5438C34.6316 47.3213 34.5231 47.0375 34.5231 46.6923C34.5231 46.4032 34.5948 46.1492 34.7385 45.9302C34.8837 45.7094 35.0796 45.5377 35.326 45.4151C35.5741 45.2907 35.8524 45.2285 36.1608 45.2285C36.4725 45.2285 36.7484 45.2898 36.9883 45.4125C37.2282 45.5351 37.4183 45.7042 37.5587 45.9197C37.7007 46.1335 37.7765 46.377 37.7863 46.6503H37.3432Z" fill="black"></path><path d="M38.6528 45.7462V45.3047H42.2883V45.7462H40.6995V50.6869H40.2416V45.7462H38.6528Z" fill="black"></path><path d="M47.2205 47.9952C47.2205 48.5558 47.1275 49.0438 46.9415 49.4589C46.7554 49.8724 46.4992 50.1931 46.1728 50.4208C45.848 50.6468 45.4743 50.7598 45.0515 50.7598C44.6289 50.7598 44.2543 50.6468 43.9279 50.4208C43.6031 50.1931 43.3477 49.8724 43.1616 49.4589C42.9772 49.0438 42.885 48.5558 42.885 47.9952C42.885 47.4345 42.9772 46.9475 43.1616 46.534C43.3477 46.1188 43.604 45.7981 43.9304 45.5721C44.2567 45.3443 44.6305 45.2305 45.0515 45.2305C45.4743 45.2305 45.848 45.3443 46.1728 45.5721C46.4992 45.7981 46.7554 46.1188 46.9415 46.534C47.1275 46.9475 47.2205 47.4345 47.2205 47.9952ZM46.775 47.9952C46.775 47.5133 46.6999 47.1007 46.5498 46.7573C46.3996 46.4122 46.1948 46.1485 45.9353 45.9663C45.6758 45.7841 45.3812 45.693 45.0515 45.693C44.7235 45.693 44.4298 45.7841 44.1703 45.9663C43.9107 46.1485 43.7051 46.4113 43.5533 46.7547C43.4032 47.0981 43.3281 47.5116 43.3281 47.9952C43.3281 48.477 43.4032 48.8896 43.5533 49.233C43.7035 49.5764 43.9083 49.8401 44.1678 50.024C44.4273 50.2062 44.7219 50.2973 45.0515 50.2973C45.3812 50.2973 45.6758 50.2062 45.9353 50.024C46.1965 49.8418 46.4021 49.579 46.5522 49.2356C46.7024 48.8904 46.7767 48.477 46.775 47.9952Z" fill="black"></path><path d="M48.3276 50.6869V45.3047H49.9458C50.3016 45.3047 50.5986 45.3739 50.8369 45.5123C51.0768 45.649 51.2572 45.8391 51.378 46.0826C51.5003 46.3244 51.5615 46.6021 51.5615 46.9157C51.5615 47.2293 51.5003 47.5061 51.378 47.7462C51.2572 47.9861 51.0777 48.1736 50.8393 48.3085C50.6011 48.4434 50.3057 48.5109 49.9532 48.5109H48.5749V48.0615H49.9409C50.202 48.0615 50.4191 48.015 50.5921 47.9222C50.7667 47.8294 50.8965 47.6971 50.9813 47.5254C51.0679 47.3537 51.1111 47.1504 51.1111 46.9157C51.1111 46.6809 51.0679 46.4759 50.9813 46.3007C50.8949 46.1237 50.7643 45.9871 50.5897 45.8907C50.4167 45.7944 50.1979 45.7462 49.9336 45.7462H48.7854V50.6869H48.3276ZM50.5382 48.2586L51.7722 50.6869H51.2433L50.0217 48.2586H50.5382Z" fill="black"></path><path d="M52.6839 50.6869H52.2041L54.028 45.3047H54.5177L56.3416 50.6869H55.8618L54.2901 45.9433H54.2556L52.6839 50.6869ZM53.0291 48.6239H55.5166V49.0654H53.0291V48.6239Z" fill="black"></path><path d="M61.1055 45.3047V50.6869H60.6597L57.6976 46.1798H57.6583V50.6869H57.2007V45.3047H57.6439L60.6158 49.817H60.6551V45.3047H61.1055Z" fill="black"></path><path d="M62.1348 45.7462V45.3047H65.7702V45.7462H64.1816V50.6869H63.7234V45.7462H62.1348Z" fill="black"></path><path d="M66.8005 50.6869V45.3047H69.709V45.7462H67.2587V47.7724H69.5547V48.2139H67.2587V50.2454H69.758V50.6869H66.8005Z" fill="black"></path></svg> 