<?xml version="1.0" encoding="UTF-8"?> <svg xmlns="http://www.w3.org/2000/svg" width="251" height="59"><g fill="none" fill-rule="evenodd"><polygon fill="#000" points="0 59 59 59 59 0 0 0"></polygon><polygon fill="#000" points="192 59 251 59 251 0 192 0"></polygon><polygon fill="#000" points="64 59 123 59 123 0 64 0"></polygon><polygon fill="#000" points="128 59 187 59 187 0 128 0"></polygon><path d="m23.022 34.806 5.659-14.163 5.43 14.163H23.021Zm24.164 12.029c-.736 0-1.495-.232-2.278-.695-.665-.393-1.226-1.025-1.695-1.867L29.686 13h-.432c0 .288-.095.719-.288 1.294a34.173 34.173 0 0 1-.647 1.773 23.52 23.52 0 0 1-.671 1.558l-.36.742L16.208 44.27c-.47.844-1.031 1.478-1.697 1.871-.784.463-1.542.695-2.277.695h-.432v.48h9.83v-.48h-.432c-.384 0-.76-.12-1.127-.36a1.976 1.976 0 0 1-.79-1.03c-.126-.35-.13-.759-.02-1.226l3.11-7.784h12.363l2.83 7.38h-.016c.383.959.336 1.702-.144 2.229-.48.528-1.039.791-1.678.791h-.431v.48H47.57v-.48h-.384ZM224.481 15.132a2.908 2.908 0 0 1 2.134-.886h.622v-.48H215.395v.48h.623c.832 0 1.542.296 2.134.886.59.592.903 1.303.934 2.133v26.55a3.087 3.087 0 0 1-.934 2.134 2.907 2.907 0 0 1-2.134.886h-.623v.48H227.237v-.48h-.622a2.904 2.904 0 0 1-2.134-.886 3.083 3.083 0 0 1-.935-2.134v-26.55c.032-.83.343-1.541.935-2.133M111.22 31.739h.719v-.48h-10.74v.48h.767c1.63 0 2.445.719 2.445 2.156l-.048 8.1a9.338 9.338 0 0 1-2.638 2.348 13.988 13.988 0 0 1-3.428 1.485 13.78 13.78 0 0 1-3.811.528c-2.59-.032-4.835-.696-6.737-1.989-1.902-1.294-3.38-3.122-4.435-5.488-1.054-2.364-1.582-5.111-1.582-8.242 0-3.227.536-6.03 1.606-8.411 1.07-2.38 2.59-4.226 4.555-5.536 1.967-1.31 4.275-1.965 6.929-1.965 1.98 0 3.78.32 5.394.958 1.614.64 2.98 1.59 4.099 2.853 1.119 1.262 1.933 2.883 2.445 4.863h.432l-.671-7.236c-.928-.575-1.999-1.094-3.213-1.558-1.215-.463-2.573-.83-4.075-1.102-1.503-.27-3.133-.407-4.891-.407-3.516 0-6.593.72-9.23 2.156a15.357 15.357 0 0 0-6.16 6.087c-1.471 2.62-2.207 5.688-2.207 9.201 0 3.516.736 6.574 2.206 9.178 1.47 2.604 3.524 4.625 6.162 6.063 2.636 1.438 5.681 2.172 9.133 2.204 2.493 0 4.69-.312 6.593-.934 1.901-.624 3.524-1.414 4.867-2.373 1.342-.958 2.38-1.916 3.116-2.875v-7.908c-.064-1.437.735-2.156 2.397-2.156M164.02 41.994c-.609 1.15-1.48 2.013-2.614 2.588-1.135.575-2.501.863-4.099.863h-3.884V15.492h2.158c1.438 0 2.66.248 3.668.743a4.937 4.937 0 0 1 2.277 2.252c.51 1.007.767 2.261.767 3.763 0 1.438-.232 2.611-.695 3.522-.464.911-1.071 1.606-1.822 2.084a7.514 7.514 0 0 1-2.373 1.007c-.832.192-1.615.287-2.35.287v.432c1.119 0 2.26.12 3.428.36 1.167.239 2.23.655 3.189 1.246.958.591 1.741 1.422 2.35 2.492.606 1.07.91 2.437.91 4.097 0 1.662-.304 3.067-.91 4.217m5.033-8.194c-.67-1.278-1.638-2.333-2.9-3.163-1.264-.831-2.725-1.358-4.388-1.582a7.57 7.57 0 0 0 2.638-1.223c.831-.59 1.51-1.39 2.038-2.396.527-1.006.79-2.211.79-3.617 0-1.694-.439-3.14-1.318-4.338-.88-1.199-2.142-2.116-3.788-2.756-1.647-.639-3.603-.958-5.873-.958h-10.98l.048.48H145.896c.83 0 1.55.295 2.157.885.607.592.911 1.303.911 2.133v26.55c0 .832-.304 1.542-.911 2.134-.608.591-1.327.886-2.157.886h-.575l-.049.48h12.85c2.493 0 4.634-.367 6.425-1.103 1.79-.735 3.156-1.789 4.099-3.163.942-1.373 1.414-2.988 1.414-4.84 0-1.661-.335-3.132-1.007-4.41" fill="#FFF"></path></g></svg> 