<svg width="146" height="141" viewBox="0 0 146 141" fill="none" xmlns="http://www.w3.org/2000/svg">
<path fill-rule="evenodd" clip-rule="evenodd" d="M145.895 100.016C145.895 106.634 143.567 116.843 137.747 125.351C131.927 133.859 122.614 140.476 108.84 140.476C91.1847 140.476 77.0219 126.863 72.9477 109.848C68.8735 126.863 54.9048 140.476 37.0559 140.476C9.5065 140.476 0 113.44 0 100.016C0 87.7272 4.85026 70.5225 21.5351 70.5225C28.7135 70.5225 30.2656 75.06 37.0559 75.06C43.6522 75.06 45.3983 70.5225 52.5767 70.5225C63.2472 70.5225 70.2316 80.3537 72.9477 90.7522C75.6639 80.3537 82.6482 70.5225 93.3188 70.5225C100.497 70.5225 102.243 75.06 108.84 75.06C115.63 75.06 117.182 70.5225 124.36 70.5225C141.239 70.5225 145.895 87.7272 145.895 100.016ZM66.1574 95.8569C65.9634 90.3741 62.2772 77.3287 53.5467 77.3287C50.6366 77.3287 47.3384 79.4084 47.3384 82.8116C47.3384 86.971 53.3527 89.4288 53.7407 96.9913C53.7407 101.907 57.427 103.419 60.1431 103.419C63.6353 103.23 66.1574 101.151 66.1574 95.8569ZM139.299 95.8569C139.105 90.3741 135.419 77.3287 126.689 77.3287C123.778 77.3287 120.48 79.4084 120.48 82.8116C120.48 86.971 126.494 89.4288 126.882 96.9913C126.882 101.907 130.569 103.419 133.285 103.419C136.777 103.23 139.299 101.151 139.299 95.8569Z" fill="#C21F3D"/>
<path d="M141.836 19.8516C134.075 8.69691 121.077 1.51254 106.526 1.51254C96.2433 1.51254 86.7368 5.10475 79.3644 11.1548C78.2004 12.1001 77.0363 13.0454 76.0662 14.1797V3.02502C76.0662 1.51252 74.7082 0 72.9621 0C71.216 0 69.858 1.51252 69.858 3.02502V14.1797C68.8879 13.0454 67.7239 12.1001 66.5598 11.1548C59.1874 5.10475 49.6809 1.51254 39.3984 1.51254C24.8476 1.51254 11.8489 8.69691 3.89453 19.8516C3.11849 21.1751 3.11849 22.6876 3.89453 24.0111C6.09331 26.91 8.55081 29.5569 11.2669 31.9517C19.2214 38.758 28.9219 42.3502 39.3984 42.3502C43.0846 42.3502 45.4127 42.1611 49.0989 41.2158C42.3086 49.3455 37.0703 58.6096 34.3541 67.6847C33.9661 69.1972 34.7421 70.7097 36.2942 71.0878C36.5528 71.0878 36.8116 71.0878 37.0703 71.0878C38.2343 71.0878 39.3984 70.3315 39.5924 69.1972C44.4426 52.5596 58.6054 35.733 72.9621 29.1158C87.1248 35.733 101.288 52.5596 106.138 69.1972C106.526 70.3315 107.69 71.0878 108.854 71.0878C109.113 71.0878 109.371 71.0878 109.63 71.0878C110.988 70.7097 111.958 69.1972 111.57 67.6847C108.854 58.6096 103.616 49.1565 96.6314 41.2158C101.482 42.3502 103.616 42.3502 107.69 42.3502C117.972 41.9721 127.285 38.1908 134.657 31.9517C137.373 29.5569 139.766 26.91 141.836 24.0111C142.806 22.6876 142.806 21.1751 141.836 19.8516Z" fill="#07743B"/>
</svg>
