<?xml version="1.0" encoding="UTF-8"?> <svg xmlns="http://www.w3.org/2000/svg" width="160" height="88" viewBox="0 0 160 88" fill="none"><g clip-path="url(#clip0_6112_50822)"><mask id="mask0_6112_50822" style="mask-type:luminance" maskUnits="userSpaceOnUse" x="54" y="13" width="53" height="63"><path d="M54 13H107V76H54V13Z" fill="white"></path></mask><g mask="url(#mask0_6112_50822)"><path d="M106.962 74.4672H104.032C104.011 74.4672 103.994 74.45 103.994 74.4289V61.4761C103.994 61.455 103.977 61.4378 103.957 61.4378H102.529C102.508 61.4378 102.491 61.455 102.491 61.4761V75.9617C102.491 75.9828 102.508 76 102.529 76H106.962C106.983 76 107 75.9828 107 75.9617V74.5054C107 74.4843 106.983 74.4672 106.962 74.4672Z" fill="black"></path><path d="M92.2867 73.854C92.2867 74.1921 92.017 74.4672 91.6855 74.4672H90.6335C90.3019 74.4672 90.0323 74.1921 90.0323 73.854V63.4305C90.0323 63.0923 90.3019 62.8174 90.6335 62.8174H91.6855C92.017 62.8174 92.2867 63.0923 92.2867 63.4305V73.854ZM91.6855 61.2846H90.6335C89.4732 61.2846 88.5293 62.2472 88.5293 63.4305V73.854C88.5293 75.0373 89.4732 76 90.6335 76H91.6855C92.8458 76 93.7897 75.0373 93.7897 73.854V63.4305C93.7897 62.2472 92.8458 61.2846 91.6855 61.2846Z" fill="black"></path><path d="M99.2516 73.854C99.2516 74.1921 98.9819 74.4672 98.6504 74.4672H97.5983C97.2668 74.4672 96.9971 74.1921 96.9971 73.854V63.4305C96.9971 63.0923 97.2668 62.8174 97.5983 62.8174H98.6504C98.9819 62.8174 99.2516 63.0923 99.2516 63.4305V73.854ZM98.6504 61.2846H97.5983C96.4381 61.2846 95.4941 62.2472 95.4941 63.4305V73.854C95.4941 75.0373 96.4381 76 97.5983 76H98.6504C99.8106 76 100.755 75.0373 100.755 73.854V63.4305C100.755 62.2472 99.8106 61.2846 98.6504 61.2846Z" fill="black"></path><path d="M84.7207 69.8685H83.105C83.0842 69.8685 83.0674 69.8513 83.0674 69.8302V64.8867V63.0088C83.0674 62.9877 83.0842 62.9705 83.105 62.9705H84.7207C85.0522 62.9705 85.3219 63.2456 85.3219 63.5837V69.2553C85.3219 69.5934 85.0522 69.8685 84.7207 69.8685ZM81.602 61.4377C81.5813 61.4377 81.5645 61.4549 81.5645 61.476V64.8867V71.4013V75.9616C81.5645 75.9828 81.5813 76 81.602 76H83.0297C83.0506 76 83.0674 75.9828 83.0674 75.9616V71.4396C83.0674 71.4185 83.0842 71.4013 83.105 71.4013H84.7207C85.8809 71.4013 86.8248 70.4386 86.8248 69.2553V63.5837C86.8248 62.4004 85.8809 61.4377 84.7207 61.4377H81.602Z" fill="black"></path><path d="M73.2251 26.0164H69.997C69.9762 26.0164 69.9594 25.9992 69.9594 25.9781V19.9293C69.9594 19.9082 69.9762 19.891 69.997 19.891H71.7236C71.7443 19.891 71.7611 19.8738 71.7611 19.8527V18.398C71.7611 18.3768 71.7443 18.3598 71.7236 18.3598H69.997C69.9762 18.3598 69.9594 18.3426 69.9594 18.3215V14.5696C69.9594 14.5485 69.9762 14.5313 69.997 14.5313H73.2251C73.2458 14.5313 73.2626 14.5143 73.2626 14.493V13.0384C73.2626 13.0173 73.2458 13.0001 73.2251 13.0001H68.4954C68.4747 13.0001 68.4579 13.0173 68.4579 13.0384V27.5094C68.4579 27.5306 68.4747 27.5477 68.4954 27.5477H73.2251C73.2458 27.5477 73.2626 27.5306 73.2626 27.5094V26.0546C73.2626 26.0335 73.2458 26.0164 73.2251 26.0164Z" fill="black"></path><path d="M62.5923 19.891H64.7694C64.7902 19.891 64.807 19.9082 64.807 19.9293V27.5095C64.807 27.5306 64.8237 27.5476 64.8444 27.5476H66.2709C66.2916 27.5476 66.3084 27.5306 66.3084 27.5095V13.0384C66.3084 13.0171 66.2916 13 66.2709 13H64.8444C64.8237 13 64.807 13.0171 64.807 13.0384V18.3214C64.807 18.3425 64.7902 18.3596 64.7694 18.3596H62.5923C62.5716 18.3596 62.5548 18.3425 62.5548 18.3214V13.0384C62.5548 13.0171 62.5379 13 62.5172 13H61.0908C61.0701 13 61.0532 13.0171 61.0532 13.0384V27.5095C61.0532 27.5306 61.0701 27.5476 61.0908 27.5476H62.5172C62.5379 27.5476 62.5548 27.5306 62.5548 27.5095V19.9293C62.5548 19.9082 62.5716 19.891 62.5923 19.891Z" fill="black"></path><path d="M55.7642 27.5477H57.1906C57.2113 27.5477 57.2282 27.5306 57.2282 27.5094V14.5698C57.2282 14.5486 57.245 14.5315 57.2657 14.5315H58.9172C58.938 14.5315 58.9548 14.5143 58.9548 14.4932V13.0384C58.9548 13.0173 58.938 13.0001 58.9172 13.0001H54.0374C54.0167 13.0001 53.9999 13.0173 53.9999 13.0384V14.4932C53.9999 14.5143 54.0167 14.5315 54.0374 14.5315H55.6891C55.7098 14.5315 55.7266 14.5486 55.7266 14.5698V27.5094C55.7266 27.5306 55.7435 27.5477 55.7642 27.5477Z" fill="black"></path><path d="M79.2629 55.1176C80.9418 55.1176 82.3075 53.7246 82.3075 52.0124V49.85C82.3075 49.8193 82.2831 49.7946 82.253 49.7946H80.1871C80.1571 49.7946 80.1328 49.8193 80.1328 49.85V52.0124C80.1328 52.5017 79.7426 52.8996 79.2629 52.8996H77.7407C77.2609 52.8996 76.8707 52.5017 76.8707 52.0124V36.9306C76.8707 36.4412 77.2609 36.0434 77.7407 36.0434H79.2629C79.7426 36.0434 80.1328 36.4412 80.1328 36.9306V39.093C80.1328 39.1236 80.1571 39.1484 80.1871 39.1484H82.253C82.2831 39.1484 82.3075 39.1236 82.3075 39.093V36.9306C82.3075 35.2183 80.9418 33.8254 79.2629 33.8254H77.7407C76.0618 33.8254 74.696 35.2183 74.696 36.9306V52.0124C74.696 53.7246 76.0618 55.1176 77.7407 55.1176H79.2629Z" fill="black"></path><path d="M92.5471 49.407L93.7124 41.2739C93.7167 41.2435 93.7238 41.2435 93.7281 41.2739L94.8934 49.407C94.8977 49.4373 94.8768 49.4619 94.8468 49.4619H92.5936C92.5635 49.4619 92.5428 49.4373 92.5471 49.407ZM92.5578 33.9913L89.555 54.9518C89.5507 54.9822 89.5715 55.0068 89.6015 55.0068H91.6905C91.7206 55.0068 91.7483 54.9822 91.7527 54.9518L92.2136 51.7348C92.2181 51.7044 92.2458 51.6798 92.2759 51.6798H95.1646C95.1945 51.6798 95.2224 51.7044 95.2267 51.7348L95.6877 54.9518C95.692 54.9822 95.7199 55.0068 95.75 55.0068H97.8389C97.8689 55.0068 97.8898 54.9822 97.8853 54.9518L94.8826 33.9913C94.8783 33.961 94.8503 33.9363 94.8203 33.9363H92.6201C92.59 33.9363 92.5621 33.961 92.5578 33.9913Z" fill="black"></path><path d="M87.0562 33.9364H84.9903C84.9602 33.9364 84.9358 33.9611 84.9358 33.9918V54.9513C84.9358 54.9818 84.9602 55.0067 84.9903 55.0067H87.0562C87.0863 55.0067 87.1106 54.9818 87.1106 54.9513V33.9918C87.1106 33.9611 87.0863 33.9364 87.0562 33.9364Z" fill="black"></path><path d="M106.946 52.7887H102.705C102.675 52.7887 102.651 52.7639 102.651 52.7333V33.9918C102.651 33.9611 102.626 33.9364 102.596 33.9364H100.53C100.5 33.9364 100.476 33.9611 100.476 33.9918V54.9513C100.476 54.9818 100.5 55.0067 100.53 55.0067H106.946C106.976 55.0067 107 54.9818 107 54.9513V52.8442C107 52.8135 106.976 52.7887 106.946 52.7887Z" fill="black"></path><path d="M69.9313 52.0125C69.9313 52.5019 69.5412 52.8997 69.0615 52.8997H67.5391C67.0596 52.8997 66.6693 52.5019 66.6693 52.0125V36.9307C66.6693 36.4413 67.0596 36.0434 67.5391 36.0434H69.0615C69.5412 36.0434 69.9313 36.4413 69.9313 36.9307V52.0125ZM69.0615 33.8255H67.5391C65.8604 33.8255 64.4946 35.2184 64.4946 36.9307V52.0125C64.4946 53.7248 65.8604 55.1177 67.5391 55.1177H69.0615C70.7402 55.1177 72.1061 53.7248 72.1061 52.0125V36.9307C72.1061 35.2184 70.7402 33.8255 69.0615 33.8255Z" fill="black"></path><path d="M57.7961 36.0434H58.0283C58.8077 36.0434 59.4418 36.6901 59.4418 37.4852V38.6495C59.4418 38.6802 59.4662 38.705 59.4962 38.705H61.5623C61.5922 38.705 61.6166 38.6802 61.6166 38.6495V37.4852C61.6166 35.4672 60.0069 33.8256 58.0283 33.8256H57.7961C55.8861 33.8256 54.3712 35.3556 54.2114 37.2995C53.9148 40.911 55.7138 43.1551 57.2036 45.1242C58.6311 47.0106 59.9677 48.6551 59.6892 51.3805C59.6024 52.2295 58.9208 52.8997 58.0637 52.8997H57.8109C56.9114 52.8997 56.1798 52.1535 56.1798 51.2362V50.2936C56.1798 50.2631 56.1555 50.2381 56.1254 50.2381H54.0595C54.0294 50.2381 54.0051 50.2631 54.0051 50.2936V51.2362C54.0051 53.3764 55.7123 55.1176 57.8109 55.1176H58.0637C60.0635 55.1176 61.6582 53.5331 61.8593 51.5245C62.2149 47.9713 60.4073 45.728 58.9254 43.7691C57.484 41.8643 56.1619 40.2086 56.3831 37.4155C56.444 36.6476 57.0433 36.0434 57.7961 36.0434Z" fill="black"></path></g></g><defs><clipPath id="clip0_6112_50822"><rect width="53" height="63" fill="white" transform="translate(54 13)"></rect></clipPath></defs></svg> 