<?xml version="1.0" encoding="UTF-8"?> <svg xmlns="http://www.w3.org/2000/svg" width="3101" height="1063" viewBox="0 0 3101 1063" fill="none"><path d="M1763.43 362.772C1782.47 373.234 1792.69 383.13 1804.78 401.266C1806.83 388.987 1808.88 376.708 1810.98 364.056C1856.01 364.056 1901.04 364.056 1947.43 364.056C1947.43 370.196 1947.43 376.336 1947.43 382.661C1926.96 382.661 1906.49 382.661 1885.41 382.661C1887.45 552.523 1889.5 722.386 1891.61 897.395C1907.98 897.395 1924.36 897.395 1941.23 897.395C1943.27 905.581 1945.32 913.767 1947.43 922.202C1881.93 922.202 1816.44 922.202 1748.96 922.202C1752.03 909.922 1752.03 909.922 1755.17 897.395C1773.59 897.395 1792.01 897.395 1810.98 897.395C1808.94 823.72 1806.89 750.045 1804.78 674.137C1792.5 684.37 1780.22 694.602 1767.57 705.145C1734.61 722.894 1701.9 721 1666.4 711.734C1619.28 694.498 1581.21 657.232 1555.93 614.447C1535.55 567.412 1535.82 515.696 1550.74 467.11C1572.72 418.132 1603.91 386.498 1652.08 363.087C1686.63 351.965 1728.92 351.04 1763.43 362.772ZM1649.73 401.266C1627.67 446.297 1628.34 488.58 1628.8 538.089C1628.73 545.784 1628.66 553.478 1628.58 561.406C1628.74 610.363 1631.2 642.954 1660.8 682.858C1679.31 696.175 1691.83 696.052 1714.47 695.843C1721.36 695.907 1728.26 695.971 1735.37 696.036C1759.14 692.081 1769.22 684.771 1786.18 667.935C1819.82 601.85 1822.76 510.727 1803.62 439.251C1794.6 414.767 1782.21 398.814 1761.37 382.661C1721.72 369.448 1678.03 366.97 1649.73 401.266Z" fill="white"></path><path d="M2114.88 364.056C2159.91 364.056 2204.94 364.056 2251.33 364.056C2251.63 383.698 2251.93 403.34 2252.25 423.577C2252.58 442.687 2252.94 461.796 2253.29 480.904C2253.53 494.143 2253.75 507.382 2253.94 520.621C2254.23 539.697 2254.59 558.769 2254.96 577.843C2255.03 583.723 2255.1 589.603 2255.18 595.662C2255.9 628.21 2259.36 655.701 2269.93 686.54C2316.54 690.313 2316.54 690.313 2359.47 674.525C2406.85 617.904 2404.22 558.083 2404.83 487.701C2405 477.498 2405.19 467.295 2405.38 457.093C2405.84 432.283 2406.15 407.475 2406.38 382.661C2387.96 382.661 2369.54 382.661 2350.56 382.661C2350.56 376.522 2350.56 370.382 2350.56 364.056C2372.14 363.877 2393.71 363.766 2415.29 363.669C2424.53 363.591 2424.53 363.591 2433.96 363.511C2442.74 363.481 2442.74 363.481 2451.7 363.451C2459.84 363.402 2459.84 363.402 2468.14 363.352C2480.8 364.056 2480.8 364.056 2487 370.258C2487.58 380.157 2487.73 390.08 2487.71 399.996C2487.71 406.328 2487.71 412.659 2487.7 419.183C2487.67 426.069 2487.64 432.955 2487.61 440.05C2487.6 447.062 2487.59 454.073 2487.58 461.297C2487.55 483.794 2487.47 506.29 2487.39 528.787C2487.36 543.996 2487.33 559.205 2487.3 574.415C2487.24 611.79 2487.13 649.165 2487 686.54C2505.42 686.54 2523.84 686.54 2542.82 686.54C2542.82 692.68 2542.82 698.82 2542.82 705.145C2497.79 705.145 2452.77 705.145 2406.38 705.145C2403.31 683.657 2403.31 683.657 2400.17 661.734C2395.7 666.466 2391.22 671.199 2386.61 676.075C2357.3 704.075 2333.45 715.971 2293.58 719.099C2256.11 716.642 2226.16 707.911 2195.9 685.378C2168.95 648.642 2168.92 605.814 2169.49 561.927C2169.51 556.766 2169.52 551.606 2169.54 546.289C2169.61 529.989 2169.77 513.691 2169.92 497.391C2169.99 486.264 2170.04 475.136 2170.09 464.009C2170.23 436.892 2170.44 409.777 2170.7 382.661C2152.28 382.661 2133.86 382.661 2114.88 382.661C2114.88 376.522 2114.88 370.382 2114.88 364.056Z" fill="white"></path><path d="M1255.15 375.152C1276.43 391.04 1287.9 407.334 1296.22 432.274C1296.75 440.745 1296.95 449.24 1296.92 457.727C1296.92 462.816 1296.92 467.906 1296.92 473.149C1296.89 478.615 1296.86 484.08 1296.82 489.712C1296.81 495.329 1296.81 500.947 1296.8 506.734C1296.76 524.68 1296.68 542.625 1296.61 560.57C1296.57 572.735 1296.55 584.9 1296.52 597.065C1296.45 626.89 1296.35 656.715 1296.22 686.54C1314.64 686.54 1333.06 686.54 1352.04 686.54C1352.04 692.68 1352.04 698.82 1352.04 705.145C1288.59 705.145 1225.14 705.145 1159.77 705.145C1159.77 699.006 1159.77 692.866 1159.77 686.54C1180.24 686.54 1200.71 686.54 1221.79 686.54C1221.37 649.128 1220.82 611.719 1220.17 574.31C1219.96 561.588 1219.79 548.866 1219.65 536.144C1219.44 517.838 1219.11 499.537 1218.77 481.233C1218.73 475.56 1218.69 469.887 1218.65 464.042C1217.96 434.142 1216.74 412.967 1196.99 388.863C1177.93 379.337 1162.24 381.257 1141.17 382.661C1104.62 396.55 1080.95 416.72 1063.01 451.582C1047.62 494.454 1050.74 542.278 1050.08 587.315C1049.87 596.948 1049.66 606.582 1049.43 616.215C1048.91 639.656 1048.49 663.096 1048.14 686.54C1068.6 686.54 1089.07 686.54 1110.16 686.54C1110.16 692.68 1110.16 698.82 1110.16 705.145C1044.66 705.145 979.172 705.145 911.694 705.145C911.694 699.006 911.694 692.866 911.694 686.54C932.16 686.54 952.627 686.54 973.714 686.54C973.714 586.26 973.714 485.98 973.714 382.661C953.247 382.661 932.781 382.661 911.694 382.661C911.694 376.522 911.694 370.382 911.694 364.056C956.72 364.056 1001.75 364.056 1048.14 364.056C1050.18 382.475 1052.23 400.894 1054.34 419.871C1061.06 411.237 1061.06 411.237 1067.91 402.429C1112.87 348.577 1195.26 340.036 1255.15 375.152Z" fill="white"></path><path d="M2983.14 373.989C3016.81 397.483 3043.54 428.529 3051.38 469.484C3051.38 483.81 3051.38 498.135 3051.38 512.895C2973.61 512.895 2895.84 512.895 2815.71 512.895C2814.81 601.717 2814.81 601.717 2854.18 675.227C2875.1 688.873 2887.06 689.688 2911.84 689.254C2918.68 689.246 2925.53 689.238 2932.58 689.229C2953.86 686.306 2965.46 679.681 2983.16 667.935C2987.26 667.935 2991.35 667.935 2995.57 667.935C2998.25 661.028 2998.25 661.028 3000.99 653.982C3006.87 639.61 3013.23 625.894 3020.37 612.121C3028.56 612.121 3036.75 612.121 3045.18 612.121C3039.43 651.545 3022.04 669.717 2991.62 694.801C2957.07 719.18 2918.68 721.763 2877.73 717.548C2827.15 708.203 2785.89 688.645 2754.97 646.617C2726.17 600.64 2718.06 560.685 2722.68 506.694C2736.15 450.541 2770.36 410.595 2815.71 376.46C2865 346.5 2932.18 347.527 2983.14 373.989ZM2841.87 396.978C2820.33 426.879 2815.71 458.191 2815.71 494.29C2864.83 494.29 2913.95 494.29 2964.56 494.29C2963.6 475.296 2963.6 475.296 2962.62 455.918C2962.26 448.795 2961.9 441.672 2961.53 434.333C2958.18 412.553 2952.78 400.255 2939.75 382.661C2907.1 366.337 2868.08 371.431 2841.87 396.978Z" fill="white"></path><path d="M317.465 368.32C339.171 380.011 353.697 391.775 365.918 413.669C371.304 435.596 374.445 450.285 367.081 471.81C359.716 481.887 359.716 481.887 347.312 488.089C307.181 490.278 307.181 490.278 285.292 475.686C285.812 470.457 286.331 465.229 286.867 459.842C287.498 453.047 288.13 446.252 288.78 439.251C289.428 432.488 290.076 425.725 290.743 418.757C292.898 401.567 292.898 401.567 285.292 388.863C258.13 379.81 233.027 379.039 204.666 382.661C179.719 395.361 171.782 403.385 161.082 428.81C139.739 501.098 137.474 592.333 169.78 661.346C181.173 675.806 187.608 679.938 204.666 686.54C223.934 688.736 223.934 688.736 244.591 688.478C251.491 688.582 258.39 688.686 265.499 688.793C287.176 686.326 298.386 679.91 316.302 667.936C320.395 667.936 321.387 664.835 325.605 664.835C328.291 657.928 331.392 661.028 334.133 653.982C340.012 639.61 346.372 625.894 353.514 612.121C359.654 612.121 365.794 612.121 372.12 612.121C370.618 642.913 361.083 660.691 340.698 682.737C312.61 706.171 277.597 718.653 241.103 719.874C184.594 714.406 134.142 699.683 94.1927 657.47C57.6964 612.311 49.8788 563.688 55.8178 506.694C65.0269 459.193 87.5292 418.538 127.189 390.123C184.552 355.005 252.99 341.628 317.465 368.32Z" fill="white"></path><path d="M551.978 364.056C597.005 364.056 642.031 364.056 688.422 364.056C688.422 468.43 688.422 572.803 688.422 680.339C706.842 682.385 725.262 684.432 744.24 686.54C744.24 692.68 744.24 698.82 744.24 705.145C680.794 705.145 617.347 705.145 551.978 705.145C551.978 699.006 551.978 692.866 551.978 686.54C572.445 686.54 592.911 686.54 613.998 686.54C613.998 586.26 613.998 485.98 613.998 382.661C593.531 382.661 573.065 382.661 551.978 382.661C551.978 376.522 551.978 370.382 551.978 364.056Z" fill="white"></path><path d="M347.312 829.178C346.432 840.032 345.522 850.885 344.599 861.736C344.095 867.78 343.591 873.823 343.072 880.05C341.411 894.739 338.655 907.961 334.908 922.202C331.375 921.763 327.843 921.324 324.203 920.872C279.879 915.854 236.063 915.071 191.487 915.225C184.491 915.201 177.496 915.177 170.289 915.152C133.605 915.195 98.2868 916.616 62.02 922.202C66.5328 893.622 82.0006 882.31 103.447 864.401C177.255 810.975 261.321 820.904 347.312 829.178Z" fill="white"></path><path d="M669.816 147C684.837 156.513 687.723 163.708 693.849 180.334C694.852 201.397 688.176 210.787 676.018 227.621C669.816 233.823 669.816 233.823 649.272 235.761C626.402 233.823 626.402 233.823 611.285 223.745C598.669 204.571 597.835 194.358 601.594 171.806C619.87 144.029 637.965 142.946 669.816 147Z" fill="white"></path><path d="M552 922.326L552 824.387L583.362 824.387C590.258 824.387 596.015 825.646 600.633 828.165C605.283 830.652 608.778 834.111 611.119 838.542C613.491 842.942 614.677 847.995 614.677 853.702C614.677 859.409 613.491 864.446 611.119 868.814C608.778 873.181 605.299 876.593 600.68 879.047C596.062 881.502 590.337 882.73 583.505 882.73L556.792 882.73L556.792 874.552L583.267 874.552C588.328 874.552 592.535 873.707 595.888 872.018C599.273 870.328 601.788 867.921 603.432 864.796C605.109 861.672 605.947 857.974 605.947 853.702C605.947 849.43 605.109 845.7 603.432 842.511C601.756 839.291 599.225 836.805 595.841 835.051C592.488 833.298 588.249 832.421 583.125 832.421L560.873 832.421L560.873 922.326L552 922.326ZM594.844 878.139L618.758 922.326L608.509 922.326L584.833 878.139L594.844 878.139Z" fill="white"></path><path d="M645.162 824.387L645.162 922.326L636.289 922.326L636.289 824.387L645.162 824.387Z" fill="white"></path><path d="M723.757 848.872C723.22 843.42 720.831 839.084 716.593 835.864C712.354 832.644 707.024 831.034 700.603 831.034C696.08 831.034 692.095 831.815 688.647 833.377C685.231 834.94 682.542 837.108 680.581 839.881C678.651 842.623 677.687 845.747 677.687 849.254C677.687 851.837 678.24 854.1 679.347 856.045C680.454 857.99 681.941 859.664 683.807 861.066C685.705 862.437 687.793 863.617 690.07 864.605C692.379 865.593 694.704 866.422 697.045 867.092L707.293 870.057C710.393 870.918 713.493 872.018 716.593 873.357C719.693 874.696 722.524 876.385 725.086 878.426C727.68 880.434 729.751 882.905 731.301 885.838C732.883 888.739 733.674 892.23 733.674 896.311C733.674 901.54 732.329 906.242 729.641 910.419C726.952 914.595 723.093 917.911 718.064 920.366C713.034 922.789 707.009 924 699.987 924C693.376 924 687.634 922.9 682.763 920.7C677.892 918.469 674.065 915.392 671.281 911.471C668.498 907.549 666.932 903.006 666.584 897.841L675.694 897.841C676.01 901.699 677.275 904.967 679.49 907.645C681.704 910.323 684.582 912.363 688.125 913.766C691.667 915.137 695.621 915.823 699.987 915.823C704.826 915.823 709.128 915.01 712.892 913.384C716.688 911.726 719.661 909.43 721.812 906.497C723.995 903.532 725.086 900.089 725.086 896.168C725.086 892.852 724.232 890.078 722.524 887.847C720.816 885.583 718.428 883.686 715.359 882.156C712.323 880.626 708.796 879.271 704.779 878.091L693.154 874.648C685.531 872.352 679.616 869.18 675.409 865.131C671.202 861.082 669.099 855.918 669.099 849.637C669.099 844.376 670.49 839.754 673.274 835.769C676.089 831.751 679.885 828.627 684.661 826.395C689.469 824.132 694.862 823 700.841 823C706.882 823 712.228 824.116 716.878 826.348C721.527 828.579 725.212 831.656 727.933 835.577C730.685 839.467 732.155 843.898 732.345 848.872L723.757 848.872Z" fill="white"></path><path d="M749.141 832.421L749.141 824.387L819.6 824.387L819.6 832.421L788.807 832.421L788.807 922.326L779.934 922.326L779.934 832.421L749.141 832.421Z" fill="white"></path><path d="M915.193 873.357C915.193 883.559 913.39 892.438 909.784 899.993C906.178 907.517 901.212 913.352 894.886 917.496C888.591 921.609 881.348 923.665 873.155 923.665C864.963 923.665 857.704 921.609 851.377 917.496C845.083 913.352 840.132 907.517 836.526 899.993C832.952 892.438 831.165 883.559 831.165 873.357C831.165 863.155 832.952 854.292 836.526 846.768C840.132 839.212 845.099 833.377 851.425 829.265C857.751 825.12 864.995 823.048 873.155 823.048C881.348 823.048 888.591 825.12 894.886 829.265C901.212 833.377 906.178 839.212 909.784 846.768C913.39 854.292 915.193 863.155 915.193 873.357ZM906.558 873.357C906.558 864.589 905.103 857.081 902.193 850.832C899.283 844.552 895.313 839.754 890.284 836.438C885.254 833.122 879.545 831.465 873.155 831.465C866.797 831.465 861.104 833.122 856.075 836.438C851.045 839.754 847.06 844.536 844.118 850.785C841.208 857.033 839.753 864.557 839.753 873.357C839.753 882.124 841.208 889.632 844.118 895.881C847.028 902.13 850.998 906.928 856.027 910.275C861.056 913.591 866.766 915.249 873.155 915.249C879.545 915.249 885.254 913.591 890.284 910.275C895.345 906.96 899.33 902.177 902.24 895.929C905.15 889.648 906.59 882.124 906.558 873.357Z" fill="white"></path><path d="M936.651 922.326L936.651 824.387L968.013 824.387C974.909 824.387 980.666 825.646 985.284 828.165C989.934 830.652 993.429 834.111 995.77 838.542C998.142 842.942 999.328 847.995 999.328 853.702C999.328 859.409 998.142 864.446 995.77 868.814C993.429 873.181 989.95 876.593 985.331 879.047C980.713 881.502 974.988 882.73 968.156 882.73L941.443 882.73L941.443 874.552L967.918 874.552C972.979 874.552 977.186 873.707 980.539 872.018C983.924 870.328 986.438 867.921 988.083 864.797C989.76 861.672 990.598 857.974 990.598 853.702C990.598 849.43 989.76 845.7 988.083 842.511C986.407 839.291 983.876 836.805 980.492 835.051C977.139 833.298 972.9 832.421 967.776 832.421L945.524 832.421L945.524 922.326L936.651 922.326ZM979.495 878.139L1003.41 922.326L993.16 922.326L969.484 878.139L979.495 878.139Z" fill="white"></path><path d="M1021.08 922.326L1011.78 922.326L1047.13 824.387L1056.62 824.387L1091.97 922.326L1082.67 922.326L1052.21 836.008L1051.54 836.008L1021.08 922.326ZM1027.77 884.786L1075.98 884.786L1075.98 892.82L1027.77 892.82L1027.77 884.786Z" fill="white"></path><path d="M1184.3 824.387L1184.3 922.326L1175.66 922.326L1118.25 840.312L1117.49 840.312L1117.49 922.326L1108.62 922.326L1108.62 824.387L1117.21 824.387L1174.81 906.497L1175.57 906.497L1175.57 824.387L1184.3 824.387Z" fill="white"></path><path d="M1204.25 832.421L1204.25 824.387L1274.71 824.387L1274.71 832.421L1243.92 832.421L1243.92 922.326L1235.04 922.326L1235.04 832.421L1204.25 832.421Z" fill="white"></path><path d="M1294.68 922.326L1294.68 824.387L1351.05 824.387L1351.05 832.421L1303.56 832.421L1303.56 869.292L1348.06 869.292L1348.06 877.326L1303.56 877.326L1303.56 914.292L1352 914.292L1352 922.326L1294.68 922.326Z" fill="white"></path></svg> 