<svg fill="none" xmlns="http://www.w3.org/2000/svg" viewBox="3.81 3.77 16.38 16.38">
									<path d="M19.4856 20.154L13.2236 13.892C12.7236 14.318 12.1486 14.6477 11.4986 14.881C10.8486 15.1144 10.1953 15.231 9.53859 15.231C7.93726 15.231 6.58193 14.6767 5.47259 13.568C4.36326 12.4587 3.80859 11.1037 3.80859 9.50304C3.80859 7.90238 4.36259 6.54671 5.47059 5.43604C6.57926 4.32471 7.93393 3.76904 9.53459 3.76904C11.1359 3.76904 12.4919 4.32371 13.6026 5.43304C14.7133 6.54238 15.2686 7.89804 15.2686 9.50004C15.2686 10.1947 15.1456 10.867 14.8996 11.517C14.6529 12.167 14.3296 12.723 13.9296 13.185L20.1916 19.446L19.4856 20.154ZM9.53859 14.23C10.8653 14.23 11.9856 13.7734 12.8996 12.86C13.8129 11.9467 14.2696 10.8264 14.2696 9.49904C14.2696 8.17238 13.8129 7.05238 12.8996 6.13904C11.9863 5.22571 10.8663 4.76904 9.53959 4.76904C8.21293 4.76904 7.09259 5.22571 6.17859 6.13904C5.26526 7.05238 4.80859 8.17238 4.80859 9.49904C4.80859 10.8257 5.26526 11.9457 6.17859 12.859C7.09193 13.7724 8.21193 14.23 9.53859 14.23Z" fill="currentColor"></path>
								</svg>