<?xml version="1.0" encoding="UTF-8"?> <svg xmlns="http://www.w3.org/2000/svg" width="288" height="15" viewBox="0 0 288 15" fill="none"><g clip-path="url(#clip0_11930_37601)"><path d="M65.2139 7.5L51.5703 1V14L65.2139 7.5Z" fill="black"></path><path d="M0 0.999512H11.1179V3.47471H2.90994V6.37891H10.366V8.69811H2.90994V13.9982H0V0.999512Z" fill="black"></path><path d="M12.9297 0.999512H15.8782V13.9982H12.9297V0.999512Z" fill="black"></path><path d="M23.1181 13.9982L17.2031 0.999512H20.748L24.8713 10.5285L28.8017 0.999512H32.096L26.4509 13.9982H23.1181Z" fill="black"></path><path d="M33.4062 0.999512H44.9856V3.49421H36.3342V6.14491H43.9445V8.46411H36.3342V11.5048H44.9856V13.9995H33.4062V0.999512Z" fill="black"></path></g><path d="M83.8109 0.659999V8.86C83.8109 11.22 83.6909 11.76 82.9709 12.64C82.0309 13.78 80.5709 14.38 78.6909 14.38C76.4909 14.38 74.8309 13.56 74.0309 12.08C73.6109 11.28 73.4509 10.36 73.4509 8.74H76.4909C76.5509 9.94 76.6109 10.36 76.7709 10.78C77.0709 11.56 77.7109 11.94 78.7309 11.94C79.6109 11.94 80.2709 11.58 80.5309 10.98C80.7309 10.46 80.7709 10.12 80.7709 8.6V0.659999H83.8109ZM89.3669 0.659999V8.22C89.3669 9.34 89.4869 9.98 89.8069 10.52C90.3469 11.46 91.3269 11.92 92.8269 11.92C94.4669 11.92 95.5069 11.38 95.9869 10.24C96.2069 9.76 96.2869 9.18 96.2869 8.22V0.659999H99.3469V8.48C99.3469 10.44 99.1269 11.26 98.4069 12.2C97.3069 13.62 95.3469 14.38 92.8269 14.38C90.0469 14.38 87.9469 13.44 86.9469 11.76C86.4469 10.94 86.3069 10.18 86.3069 8.34V0.659999H89.3669ZM101.993 14V0.659999H106.153L111.353 10.44L116.473 0.659999H120.693V14H117.633V4.74L112.693 14H109.893L104.933 4.74V14H101.993ZM123.478 14V0.659999H135.498V3.22H126.518V5.94H134.418V8.32H126.518V11.44H135.498V14H123.478ZM137.657 14V0.659999H140.717V14H137.657ZM143.497 14V0.659999H151.337C153.097 0.659999 153.937 0.78 154.617 1.12C155.677 1.68 156.317 2.84 156.317 4.24C156.317 5.34 155.917 6.22 155.157 6.86C154.777 7.18 154.417 7.36 153.637 7.64C155.317 8 155.797 8.74 155.937 11.3C156.077 13.16 156.117 13.3 156.457 14H153.077C152.937 13.4 152.937 13.32 152.777 11.76C152.577 9.56 152.057 9 150.237 9H146.537V14H143.497ZM146.537 6.54H150.497C151.377 6.54 151.637 6.5 151.977 6.36C152.597 6.1 152.957 5.54 152.957 4.82C152.957 4.1 152.597 3.54 151.957 3.34C151.637 3.22 151.357 3.2 150.497 3.2H146.537V6.54ZM157.156 14L163.556 0.659999H166.596L173.136 14H169.516L168.096 11H161.856L160.496 14H157.156ZM162.956 8.64H167.016L164.956 4.2L162.956 8.64ZM174.474 14V0.659999H177.514V5.88H184.274V0.659999H187.314V14H184.274V8.42H177.514V14H174.474ZM203.631 14H200.171L194.031 0.659999H197.711L201.991 10.44L206.071 0.659999H209.491L203.631 14ZM210.86 14V0.659999H213.92V14H210.86ZM216.7 14V0.659999H219.74V11.46H227.26V14H216.7ZM228.888 14V0.659999H231.928V11.46H239.448V14H228.888ZM239.675 14L246.075 0.659999H249.115L255.655 14H252.035L250.615 11H244.375L243.015 14H239.675ZM245.475 8.64H249.535L247.475 4.2L245.475 8.64ZM271.452 6.76V14H268.772V12.18C268.232 12.98 267.812 13.34 266.992 13.72C266.032 14.18 264.992 14.38 263.692 14.38C258.972 14.38 255.672 11.42 255.672 7.22C255.672 5.12 256.472 3.38 258.052 2.08C259.552 0.86 261.412 0.279999 263.812 0.279999C268.032 0.279999 270.872 2.08 271.452 5.1H267.952C267.052 3.48 265.752 2.74 263.832 2.74C261.032 2.74 259.052 4.64 259.052 7.32C259.052 9.98 261.112 11.92 263.972 11.92C266.152 11.92 267.592 11 268.312 9.14H264.812V6.76H271.452ZM273.946 14V0.659999H285.966V3.22H276.986V5.94H284.886V8.32H276.986V11.44H285.966V14H273.946Z" fill="black"></path><defs><clipPath id="clip0_11930_37601"><rect width="65.2114" height="13" fill="white" transform="translate(0 1)"></rect></clipPath></defs></svg> 