<?xml version="1.0" encoding="UTF-8"?> <svg xmlns="http://www.w3.org/2000/svg" width="3101" height="1063" viewBox="0 0 3101 1063" fill="none"><g clip-path="url(#clip0_72_245)"><g clip-path="url(#clip1_72_245)"><mask id="mask0_72_245" style="mask-type:luminance" maskUnits="userSpaceOnUse" x="-338" y="-842" width="3777" height="2747"><path d="M-338 -842H3439V1905H-338V-842Z" fill="white"></path></mask><g mask="url(#mask0_72_245)"><path d="M884.99 907.259C899.07 907.259 905.993 900.61 905.993 888.507C905.993 876.636 899.07 870.228 884.99 870.228H808.359L808.593 907.259H884.99ZM881.524 841.261C893.299 841.261 900.916 838.168 900.916 827.019C900.916 815.389 893.299 812.295 881.524 812.295H808.125L808.359 841.261H881.524ZM767.504 776.68H889.608C923.071 776.68 941.536 793.534 941.536 818.944C941.536 841.493 925.61 851.707 893.759 854.318V855.976C928.842 857.874 946.848 872.357 946.848 897.045C946.848 923.64 926.069 942.874 894.686 942.874H767.504V776.68Z" fill="white"></path></g><mask id="mask1_72_245" style="mask-type:luminance" maskUnits="userSpaceOnUse" x="-338" y="-842" width="3777" height="2747"><path d="M-338 -842H3439V1905H-338V-842Z" fill="white"></path></mask><g mask="url(#mask1_72_245)"><path d="M1091.59 889.214L1007.11 776.674H1057.2L1111.9 853.608L1166.61 776.674H1216.69L1132.22 888.982V942.877H1091.59V889.214Z" fill="white"></path></g><mask id="mask2_72_245" style="mask-type:luminance" maskUnits="userSpaceOnUse" x="-338" y="-842" width="3777" height="2747"><path d="M-338 -842H3439V1905H-338V-842Z" fill="white"></path></mask><g mask="url(#mask2_72_245)"><path d="M1439.46 776.678H1599.88V812.293H1480.32V837.704H1588.57V871.17H1480.32V942.872H1439.46V776.678Z" fill="white"></path></g><mask id="mask3_72_245" style="mask-type:luminance" maskUnits="userSpaceOnUse" x="-338" y="-842" width="3777" height="2747"><path d="M-338 -842H3439V1905H-338V-842Z" fill="white"></path></mask><g mask="url(#mask3_72_245)"><path d="M1687.61 776.681H1728.47V942.875H1687.61V776.681Z" fill="white"></path></g><mask id="mask4_72_245" style="mask-type:luminance" maskUnits="userSpaceOnUse" x="-338" y="-842" width="3777" height="2747"><path d="M-338 -842H3439V1905H-338V-842Z" fill="white"></path></mask><g mask="url(#mask4_72_245)"><path d="M2037.54 776.678L1950.29 942.872H1893.28L1805.79 776.678H1853.58L1921.9 912.489L1990 776.678H2037.54Z" fill="white"></path></g><mask id="mask5_72_245" style="mask-type:luminance" maskUnits="userSpaceOnUse" x="-338" y="-842" width="3777" height="2747"><path d="M-338 -842H3439V1905H-338V-842Z" fill="white"></path></mask><g mask="url(#mask5_72_245)"><path d="M2115.11 776.678H2277.85V812.293H2155.97V838.648H2264.22V872.124H2155.97V907.498H2277.85V942.872H2115.11V776.678Z" fill="white"></path></g><mask id="mask6_72_245" style="mask-type:luminance" maskUnits="userSpaceOnUse" x="-338" y="-842" width="3777" height="2747"><path d="M-338 -842H3439V1905H-338V-842Z" fill="white"></path></mask><g mask="url(#mask6_72_245)"><path d="M425.244 504.834C424.569 504.834 423.895 504.642 422.874 504.478V401.333C424.279 401.227 425.309 401.073 426.331 401.073C479.71 401.092 533.08 400.89 586.46 401.295C604.597 401.439 621.675 406.421 635.98 418.668C660.993 440.099 658.257 474.616 630.293 491.71C616.616 500.074 601.552 504.333 585.888 504.478C532.34 504.969 478.792 504.777 425.244 504.834ZM422.836 241.123C424.138 240.931 425.131 240.651 426.134 240.651C478.305 240.699 530.476 240.67 582.647 240.931C596.98 240.998 610.742 244.274 623.333 251.656C647.587 265.888 651.147 294.074 631.202 314.329C619.52 326.2 604.831 331.52 588.98 333.861C583.359 334.69 577.626 335.037 571.949 335.046C523.75 335.133 475.551 335.095 427.352 335.104H422.836V241.123ZM581.354 570.678C605.758 570.601 629.488 565.985 651.877 555.703C682.324 541.712 705.538 520.281 716.199 486.757C728.462 448.213 717.782 411.47 687.486 387.621C673.827 376.867 658.088 370.893 639.942 367.52C645.17 366.055 649.142 365.044 653.058 363.839C689.059 352.786 712.227 320.785 711.674 282.221C711.14 245.527 694.783 217.611 665.227 197.905C639.493 180.753 610.611 174.827 580.324 174.837C528.649 174.856 476.975 174.827 425.3 174.846C401.805 174.856 378.3 174.923 354.796 174.972V570.803C430.321 570.793 505.838 570.919 581.354 570.678Z" fill="white"></path></g><mask id="mask7_72_245" style="mask-type:luminance" maskUnits="userSpaceOnUse" x="-339" y="-842" width="3778" height="2747"><path d="M-338 -842H3439V1905H-338V-842Z" fill="white"></path></mask><g mask="url(#mask7_72_245)"><path d="M871.723 570.528H1207.78V505.34H938.958V382.634C940.635 384.956 941.637 386.267 942.564 387.635C947.033 394.178 951.333 400.846 955.942 407.283C983.466 445.683 1034.62 446.117 1062.49 408.006C1071.41 395.807 1079.48 382.942 1088.08 370.483C1092.53 364.017 1094.02 364.046 1098.51 370.685C1105.9 381.622 1113.15 392.675 1120.38 403.728C1126.75 413.46 1134.55 421.612 1144.52 427.452C1154.27 433.156 1164.67 436.249 1176.56 436.095V429.899C1176.56 416.736 1175.96 403.544 1176.74 390.439C1177.44 378.529 1175.66 368.305 1166.85 359.642C1162.82 355.682 1160.46 349.977 1157.07 345.265C1152.14 338.414 1147.32 331.428 1141.83 325.058C1113.43 292.074 1066.64 293.924 1040.79 329.144C1031.85 341.334 1023.74 354.169 1015.18 366.657C1010.49 373.47 1008.44 373.489 1003.82 366.648C995.85 354.824 988.065 342.856 980.093 331.033C970.866 317.359 958.191 308.533 942.799 303.84C939.52 302.838 938.546 301.363 938.583 297.942C938.742 280.164 938.649 262.376 938.677 244.597C938.677 243.229 938.92 241.87 939.108 240.03H1207.82V175.14H871.723V570.528Z" fill="white"></path></g><mask id="mask8_72_245" style="mask-type:luminance" maskUnits="userSpaceOnUse" x="-338" y="-842" width="3777" height="2747"><path d="M-338 -842H3439V1905H-338V-842Z" fill="white"></path></mask><g mask="url(#mask8_72_245)"><path d="M1537.44 441.044C1541.62 446.941 1545.24 453.455 1541.69 460.702C1538.09 468.025 1530.89 469.5 1523.53 469.577C1514.57 469.673 1507.79 464.951 1501.86 458.707C1494.71 451.181 1490.33 442.037 1487.46 431.649C1510.56 422.764 1527.16 426.503 1537.44 441.044ZM1589.66 178.875C1588.31 175.782 1586.76 174.76 1583.52 174.789C1561.91 174.934 1540.31 175.049 1518.7 174.731C1513.38 174.654 1509.99 176.196 1506.52 180.484C1460.39 237.453 1433 302.805 1424.38 376.261C1422.82 389.443 1418.82 398.703 1408.56 407.684C1369.82 441.613 1344.47 484.927 1329.69 534.871C1326.24 546.55 1323.16 558.344 1319.85 570.322C1321.39 570.582 1322.05 570.804 1322.72 570.804C1342.42 570.823 1362.13 570.765 1381.84 570.89C1384.84 570.91 1385.5 569.493 1386.04 566.892C1389.74 549.094 1395.59 532.047 1403.76 515.888C1412.06 499.458 1422.56 484.59 1434.14 470.637C1439.85 479.319 1444.87 488.001 1450.88 495.883C1474.69 527.104 1512.85 540.383 1548.38 530.265C1585.79 519.607 1609.41 484.599 1604.65 446.855C1599.19 403.521 1564.48 368.33 1522.09 363.955C1511.23 362.838 1500.17 363.792 1488.82 363.792C1497.75 319.148 1513.66 277.269 1539.7 238.821C1543.97 248.457 1547.91 257.284 1551.81 266.12C1596.03 366.152 1640.26 466.175 1684.38 566.256C1685.87 569.628 1687.48 571.045 1691.22 570.929C1700.72 570.621 1710.24 570.823 1719.75 570.823H1760.69C1759.97 568.838 1759.53 567.364 1758.92 565.966C1702.48 436.939 1646.02 307.931 1589.66 178.875Z" fill="white"></path></g><mask id="mask9_72_245" style="mask-type:luminance" maskUnits="userSpaceOnUse" x="-338" y="-842" width="3777" height="2747"><path d="M-338 -842H3439V1905H-338V-842Z" fill="white"></path></mask><g mask="url(#mask9_72_245)"><path d="M2623.39 339.981H2410.6V175.117H2343.78V570.544H2410.82V405.882H2623.74V570.505H2690.55V175.242H2623.39V339.981Z" fill="white"></path></g><mask id="mask10_72_245" style="mask-type:luminance" maskUnits="userSpaceOnUse" x="-338" y="-842" width="3777" height="2747"><path d="M-338 -842H3439V1905H-338V-842Z" fill="white"></path></mask><g mask="url(#mask10_72_245)"><path d="M2210.72 297.779C2202.75 250.601 2177.51 215.573 2137.74 191.859C2091.71 164.406 2041.62 156.918 1989.61 165.36C1929.36 175.131 1883.67 208.115 1856.05 264.062C1823.3 330.397 1822.18 399.334 1849.71 467.711C1871.48 521.799 1910.8 558.271 1965.77 574.45C2019.76 590.35 2073 585.272 2123.93 560.998C2161.77 542.96 2189.62 514.369 2204.21 473.387C2210.01 457.092 2212.86 440.258 2212.53 422.701H2143.15C2141.74 458.914 2123.98 483.775 2094.2 500.465C2076.15 510.582 2056.52 514.909 2036.18 516.759C1981.07 521.77 1933.45 493.353 1912.14 440.817C1893.5 394.872 1893.82 348.185 1913 302.452C1927.09 268.851 1951.14 244.848 1985.62 234.2C2023.73 222.434 2060.94 226.857 2096.04 246.033C2119.56 258.878 2135.56 278.468 2141.23 305.873C2142.37 311.366 2142.71 317.041 2143.44 322.862H2212.57C2212.57 321.04 2212.67 319.47 2212.55 317.928C2212.01 311.202 2211.84 304.399 2210.72 297.779Z" fill="white"></path></g></g></g><defs><clipPath id="clip0_72_245"><rect width="3101" height="1063" fill="white"></rect></clipPath><clipPath id="clip1_72_245"><rect width="3777" height="2747" fill="white" transform="translate(-338 -842)"></rect></clipPath></defs></svg> 