<?xml version="1.0" encoding="UTF-8"?> <svg xmlns="http://www.w3.org/2000/svg" width="1227" height="327" viewBox="0 0 1227 327" fill="none"><path d="M135.333 14.6666C111.067 17.2 90.2666 23.4666 73.2 33.3333C61.6 40 41.7333 59.2 37.4666 67.7333C31.2 80 32.5333 92.1333 41.0666 101.6C48.1333 109.467 59.3333 114.267 71.8666 114.8C75.6 115.067 78.6666 115.467 78.6666 115.867C78.6666 116.267 74.4 118.4 69.2 120.533C56.5333 125.6 37.7333 138.267 29.8666 147.067C17.8666 160.4 12.6666 176.667 16 190.8C20.9333 211.867 35.8666 225.6 59.3333 230.8C70.4 233.333 107.733 232.933 124.267 230.133C160.667 224.133 190.4 206.667 229.067 168.8L249.467 148.8L254.267 151.333C264.667 156.933 272.133 170.267 269.333 178.267C267.867 182.267 267.867 182.267 254.933 183.2C229.733 184.933 209.733 192.267 203.867 201.867C202.533 204.133 201.333 208.4 201.333 211.467C201.333 220.933 209.467 226.8 226.8 229.467C252.533 233.467 293.067 225.467 318.133 211.467C321.467 209.6 325.333 208 326.533 208C328.4 208 334.4 211.067 350.267 220.133C355.733 223.2 355.867 223.2 358.533 220.8C361.733 217.867 364 210.8 364 203.733C364 198.933 363.733 198.667 355.333 194.667C350.533 192.4 343.467 189.867 339.6 189.067L332.667 187.6V176.133C332.667 166.667 332.133 163.6 329.467 158.667C325.6 151.467 314.133 139.067 303.733 131.067C295.333 124.667 294 120.933 298.667 116.933C302.4 113.867 302 112.267 296.667 107.2C290.267 101.333 283.2 99.3333 268 99.3333C253.067 99.3333 241.867 102.267 235.733 107.867C232.133 111.067 231.6 112.267 231.6 118.8C231.6 123.6 232.4 127.467 233.867 129.733C236.133 133.067 236.133 133.333 232.8 138.933C226.933 148.8 210.933 166.533 199.6 175.467C181.2 190 164.667 197.333 144.267 200C126.533 202.4 113.467 198.933 108.267 190.4C101.867 179.867 103.733 164.533 112.933 153.067C119.867 144.533 134.533 133.067 146.8 126.667C158.267 120.8 160.533 117.067 156.667 111.067C154.133 107.333 151.733 106.133 140.133 103.333C122.667 98.9333 116 92.9333 116 81.2C116 66.1333 134.933 53.4666 168.4 46C177.333 44 179.067 43.2 180.667 39.8666C184.933 31.8666 181.733 20.4 174.267 16.9333C168.8 14.4 149.067 13.2 135.333 14.6666ZM264 203.733C264 205.333 258.533 210.133 254 212.4C247.333 215.733 234.933 217.467 229.067 215.867C220.4 213.6 220.667 207.467 229.467 204.4C234.533 202.667 264 202.133 264 203.733Z" fill="white"></path><path d="M782.933 38.1334C766.667 46.2667 762.267 63.8667 773.467 76.5334C786.133 91.0667 811.2 90.9334 823.867 76.4C839.6 58.6667 825.067 34.6667 798.533 34.6667C791.867 34.6667 788.267 35.4667 782.933 38.1334Z" fill="white"></path><path d="M876.667 93.8668C871.867 96.0001 865.733 102.8 864.533 107.467C862.133 117.2 868.933 127.2 880.933 131.467C889.067 134.267 888.933 132.667 881.6 154.667C869.067 192.533 852.4 212 835.2 208.667C832.8 208.267 829.6 206.4 828 204.4C821.867 196.533 821.6 187.733 826.133 140.267C827.333 128.4 827.867 117.2 827.467 115.6C824.267 102.933 777.733 103.6 768.533 116.533C766.933 118.8 766.667 125.733 766.667 158.4C766.8 179.733 766.533 197.867 766.133 198.533C764.4 201.333 752.267 205.6 744 206.267C726.8 207.733 718.667 201.6 718.667 187.2C718.667 182.933 719.2 175.733 720 171.467C720.667 167.067 722.533 153.733 724.133 141.733C727.333 116.4 727.067 115.2 716.267 110.267C708.133 106.533 685.733 106.133 679.333 109.6C670.267 114.4 670.133 115.2 669.067 142.533C668.667 156.133 668.133 171.467 668.133 176.533L668 185.867L661.467 192.133C653.733 199.6 646.8 202 636.267 200.933C621.2 199.333 618.933 194.267 621.2 167.867C622.133 158 623.733 142.933 624.8 134.4C626.267 122.8 626.4 118.133 625.333 116.133C619.6 105.333 581.867 103.2 572 113.2C568.533 116.667 568.4 117.333 566.667 142.667C565.867 156.933 564.533 175.2 564 183.333C562.933 197.333 563.067 198.4 566.133 204.933C571.333 216 584.533 224.133 602.933 227.733C612.133 229.467 615.867 229.6 627.733 228.267C645.6 226.267 655.2 222 665.2 211.6L672.533 204.133L676.933 210.667C681.733 217.867 688 222.667 697.333 226.267C702 228 707.6 228.533 722.667 228.533C744.667 228.533 750.933 226.933 766 217.467L774.4 212.267L780.667 218.133C784.133 221.333 790.267 225.333 794.533 226.933C801.067 229.6 804.267 230 821.333 229.867C843.467 229.867 850.933 228.133 862.267 220.667C872 214.133 878.533 205.333 888.4 184.933C896 169.6 904 149.067 904 145.333C904 144.667 904.533 142.667 905.2 140.933L906.4 137.733L916.933 139.467C922.667 140.4 932 141.2 937.733 141.2C943.333 141.333 948 141.733 948 142.133C948 142.533 944.8 145.867 940.8 149.467C936.8 153.067 932.267 158.667 930.8 161.733C922.8 178.4 927.733 202 941.867 214.4C953.867 224.933 968.933 229.333 992.667 229.333C1011.87 229.333 1024.4 226.933 1036 221.067L1044.67 216.667L1052 220.267C1069.07 228.667 1097.6 230.933 1142 227.333C1161.2 225.733 1177.33 225.2 1188.53 225.733C1205.47 226.533 1205.6 226.4 1208.93 223.2C1211.87 220.267 1212.27 218.933 1211.6 214.267C1210.4 205.2 1206.27 202.667 1193.07 202.667C1187.2 202.667 1175.07 204 1166.13 205.467C1144.53 209.333 1119.2 209.6 1110.4 206.267C1103.2 203.467 1099.33 199.2 1097.33 192C1094.4 181.067 1102 171.467 1118.27 165.333C1127.73 161.733 1130.67 159.333 1130.67 154.667C1130.67 149.867 1128.93 148.667 1118.4 145.333C1102.67 140.533 1098.53 133.867 1106.53 126.133C1112 120.8 1121.2 118.4 1138 118C1146.13 117.867 1153.07 117.6 1153.73 117.467C1154.27 117.467 1155.33 115.733 1156.13 113.733C1157.2 110.933 1156.93 108.8 1155.33 104.4C1152.13 96.0001 1147.6 93.3335 1136.4 93.3335C1107.07 93.4668 1058.4 106.133 1047.33 116.667C1041.47 122.133 1040.13 128.933 1043.6 134.933C1047.2 141.2 1057.47 147.6 1066.8 149.6C1074.27 151.067 1075.2 153.2 1068.53 153.333C1063.6 153.333 1049.87 161.2 1043.33 167.733C1034.4 176.667 1031.47 183.6 1032.4 194.133C1033.2 202.133 1033.07 202.4 1029.6 203.867C1027.6 204.667 1022.8 205.867 1018.93 206.667C993.6 211.333 973.6 188 978.667 159.733C980.533 149.2 982.933 142.533 985.733 140.267C986.667 139.467 990.667 138.133 994.4 137.2C1004.67 135.067 1006.93 132.667 1008.13 122.533C1009.6 110.4 1009.2 110.133 991.333 111.867C972.533 113.733 936.933 113.733 923.333 111.867L912.533 110.4L909.067 104C903.2 93.4668 888.267 88.8001 876.667 93.8668Z" fill="white"></path><path d="M428.533 107.2C408.133 111.067 393.6 118.133 381.733 130C366.933 144.8 360.533 164.267 363.867 185.067C365.6 196.533 368 202.533 374.133 210.133C390.133 230.133 428.533 236.4 455.333 223.333C464 219.2 476.933 208.133 480.267 202.133C482.533 198.133 483.6 200 483.067 206.933C482.667 213.733 479.067 287.6 478.4 302.667C478.133 308.133 478.533 309.867 479.867 309.6C480.8 309.467 494.8 308.533 510.8 307.733L540.133 306.133L539.733 218.133C539.333 136.8 539.2 129.6 536.933 125.733C533.467 119.2 528.533 117.333 515.733 117.333C506.8 117.333 503.333 117.867 498.667 120.267C490.133 124.8 487.733 130.133 486.533 149.2C485.467 167.333 483.2 175.2 476.667 184.8C469.467 195.067 458.8 201.333 448 201.333C439.867 201.333 430.267 197.733 425.733 193.067C419.333 186.133 418.133 182.933 418.133 171.867C418.267 158.133 422.8 148.133 431.867 142.533C440.533 136.933 445.867 135.867 462.933 136.133L477.867 136.267L481.6 132.133C484.533 128.8 485.333 126.667 485.333 121.867C485.333 114.533 482.533 108.667 478.4 107.467C472.133 105.467 438.133 105.333 428.533 107.2Z" fill="white"></path></svg> 