<svg viewBox="0 0 16 9" fill="none" xmlns="http://www.w3.org/2000/svg">
<path d="M0.181824 4.54546V8.18182H0.909096V6.72727H4.66587V6H0.909096V4.54546C0.909581 4.33988 0.9794 4.16727 1.11855 4.02764C1.2577 3.888 1.43031 3.81818 1.63637 3.81818L4.66587 3.79185L5.27273 3.09091H1.63637V1.63637C1.63685 1.43079 1.70667 1.25818 1.84582 1.11855C1.98498 0.978912 2.15758 0.909093 2.36364 0.909093L5.29087 0.875179L5.91587 0.18182H2.36364C1.95346 0.18182 1.60849 0.321699 1.32873 0.601457C1.04898 0.881214 0.909096 1.22618 0.909096 1.63637V3.30909C0.67249 3.43128 0.492127 3.61406 0.368005 3.85746C0.243884 4.10085 0.181824 4.33018 0.181824 4.54546Z" fill="white"/>
<path fill-rule="evenodd" clip-rule="evenodd" d="M4.9091 4.54546V8.18182H5.61617V6.72727H14.6869V8.18182H15.3939V4.54546C15.3939 4.33018 15.3336 4.10085 15.2129 3.85746C15.0923 3.61406 14.9169 3.43128 14.6869 3.30909V1.63637C14.6869 1.22618 14.5509 0.881215 14.2789 0.601457C14.0069 0.321699 13.6715 0.181821 13.2727 0.181821L7.03031 0.18182C6.63152 0.18182 6.29613 0.321699 6.02415 0.601457C5.75216 0.881214 5.61617 1.22618 5.61617 1.63637V3.30909C5.38613 3.43128 5.21078 3.61406 5.09011 3.85746C4.96943 4.10085 4.9091 4.33018 4.9091 4.54546ZM13.9798 3.09091L6.32324 3.09091V1.63637C6.32371 1.43079 6.39159 1.25818 6.52687 1.11855C6.66216 0.978911 6.82997 0.909093 7.03031 0.909093C7.03031 0.909093 13.0729 0.908608 13.2727 0.909093C13.2896 0.909134 13.3061 0.909032 13.3221 0.908933C13.4959 0.907856 13.6243 0.90706 13.803 1.09091C13.9983 1.29174 13.9798 1.63637 13.9798 1.63637V3.09091ZM14.6869 6L5.61617 6V4.54546C5.61664 4.33988 5.68452 4.16727 5.8198 4.02764C5.95509 3.888 6.1229 3.81818 6.32324 3.81818L13.9798 3.81818C14.1797 3.81867 14.3475 3.88849 14.4832 4.02764C14.619 4.16679 14.6869 4.3394 14.6869 4.54546V6Z" fill="white"/>
</svg>
