<?xml version="1.0" encoding="UTF-8"?> <svg xmlns="http://www.w3.org/2000/svg" width="309" height="180" viewBox="0 0 309 180" fill="none"><g clip-path="url(#clip0_5827_31868)"><g clip-path="url(#clip1_5827_31868)"><path d="M246.429 115.079C244.037 115.079 241.676 114.589 239.376 113.577C237.076 112.595 235.052 111.215 233.274 109.529C231.495 107.842 230.054 105.818 228.981 103.549C227.907 101.28 227.355 98.8264 227.355 96.2198C227.355 93.5212 227.938 91.0066 229.103 88.676C230.269 86.3761 231.771 84.3522 233.611 82.6962C235.42 81.0096 237.506 79.691 239.744 78.771C241.983 77.8511 244.252 77.3604 246.429 77.3604C248.607 77.3604 250.845 77.8204 253.115 78.771C255.353 79.691 257.438 81.0096 259.248 82.6962C261.057 84.3522 262.59 86.3761 263.755 88.676C264.921 90.976 265.503 93.5212 265.503 96.2198C265.503 98.7957 264.951 101.249 263.878 103.549C262.805 105.818 261.333 107.842 259.585 109.529C257.837 111.215 255.782 112.595 253.482 113.577C251.183 114.589 248.821 115.079 246.429 115.079ZM246.429 79.231C244.62 79.231 243.025 79.5377 241.676 80.0897C240.358 80.6723 239.223 81.6229 238.364 82.9722C237.475 84.3215 236.831 86.0695 236.402 88.2161C235.972 90.3627 235.758 93.0612 235.758 96.2505C235.758 100.022 236.064 103.058 236.647 105.266C237.23 107.474 238.027 109.191 238.978 110.387C239.928 111.553 241.063 112.35 242.32 112.718C243.608 113.086 244.988 113.27 246.429 113.27C247.871 113.27 249.251 113.086 250.539 112.718C251.796 112.35 252.931 111.583 253.881 110.387C254.832 109.191 255.629 107.474 256.212 105.266C256.794 103.058 257.101 99.9917 257.101 96.2505C257.101 93.0612 256.886 90.3627 256.457 88.2161C256.028 86.0695 255.353 84.3215 254.494 82.9722C253.605 81.6229 252.501 80.6723 251.183 80.0897C249.833 79.507 248.239 79.231 246.429 79.231Z" fill="black"></path><path d="M38.332 96.3118C38.332 85.3029 45.0785 77.6671 57.0688 77.6671C69.059 77.6671 75.8055 85.3029 75.8055 96.3118C75.8055 107.321 69.059 114.957 57.0688 114.957C45.0785 114.957 38.332 107.321 38.332 96.3118ZM66.1765 96.3118C66.1765 89.8414 63.3859 84.6589 57.0688 84.6589C50.7516 84.6589 47.9611 89.8414 47.9611 96.3118C47.9611 102.813 50.7516 107.965 57.0688 107.965C63.3859 107.965 66.1765 102.782 66.1765 96.3118Z" fill="black"></path><path d="M78.5962 96.3118C78.5962 85.3029 85.3426 77.6671 97.3329 77.6671C109.323 77.6671 116.07 85.3029 116.07 96.3118C116.07 107.321 109.323 114.957 97.3329 114.957C85.312 114.957 78.5962 107.321 78.5962 96.3118ZM106.441 96.3118C106.441 89.8414 103.65 84.6589 97.3329 84.6589C91.0158 84.6589 88.2252 89.8414 88.2252 96.3118C88.2252 102.813 91.0158 107.965 97.3329 107.965C103.619 107.965 106.441 102.782 106.441 96.3118Z" fill="black"></path><path d="M118.983 96.3118C118.983 84.9042 125.637 77.6671 135.665 77.6671C139.529 77.6671 142.565 78.7404 145.018 80.4577V63.2849H138.271V55.9865H154.279V106.83H159.707V114.067H145.815V110.111C143.27 112.841 139.989 114.957 134.806 114.957C125.331 114.957 118.983 107.382 118.983 96.3118ZM145.018 104.929V86.9588C143.209 85.6402 141.001 84.7508 138.118 84.7508C131.648 84.7508 128.52 89.1974 128.52 96.1585C128.52 102.414 131.065 107.903 137.474 107.903C140.602 107.873 143.147 106.585 145.018 104.929Z" fill="black"></path><path d="M285.467 115.202C275.592 115.202 268.141 107.198 268.141 96.5572C268.141 88.7682 274.519 77.9125 284.884 77.9125C290.557 77.9125 294.758 82.083 296.445 86.2842V58.3171H289.76V56.2932H296.568C299.174 56.2932 301.842 56.1399 303.467 54.2386L303.682 53.9933V112.135H309.447V114.159H296.414V108.149C295.096 111.062 291.14 115.202 285.467 115.202ZM284.884 79.9058C277.678 79.9058 276.42 85.2723 276.42 96.5572C276.42 108.394 277.248 113.209 285.467 113.209C288.349 113.209 291.201 112.013 293.256 109.897C295.341 107.781 296.476 104.96 296.414 101.924V92.3867C296.445 86.4989 291.692 79.9058 284.884 79.9058Z" fill="black"></path><path d="M163.203 114.19V112.595L163.325 112.565C166.576 112.565 168.784 112.381 169.888 112.013C170.379 111.829 170.563 111.675 170.624 111.583C170.716 111.461 170.808 111.093 170.838 110.142V79.2618H163.233V77.2072H170.808V73.9566C170.808 68.7128 171.022 64.3889 173.598 60.1264C176.573 55.2812 180.621 54.6066 184.239 54.6066C189.606 54.6066 191.998 58.5318 191.998 62.4263C191.998 64.4809 190.557 66.5355 187.797 66.5355C185.251 66.5355 184.117 64.7569 184.117 63.009C184.117 58.9611 186.907 58.2558 188.686 58.2251C188.563 57.1212 186.723 56.2012 184.577 56.2012C180.744 56.2012 178.198 58.1638 178.198 67.7621V77.1458H186.202V79.2004H178.168V110.173C178.198 111.031 178.29 111.338 178.382 111.461C178.444 111.553 178.628 111.706 179.118 111.89C180.222 112.258 182.461 112.442 185.742 112.442H185.865V113.423V114.098H163.203V114.19Z" fill="black"></path><path d="M205.613 115.079C203.221 115.079 200.86 114.589 198.56 113.577C196.26 112.595 194.236 111.215 192.458 109.529C190.679 107.842 189.238 105.818 188.165 103.549C187.091 101.28 186.539 98.8264 186.539 96.2198C186.539 93.5212 187.122 91.0066 188.287 88.676C189.453 86.3761 190.955 84.3522 192.795 82.6962C194.604 81.0096 196.69 79.691 198.928 78.771C201.198 77.8511 203.436 77.3604 205.613 77.3604C207.791 77.3604 210.029 77.8204 212.298 78.771C214.537 79.691 216.622 81.0096 218.432 82.6962C220.241 84.3522 221.774 86.3761 222.939 88.676C224.105 90.976 224.687 93.5212 224.687 96.2198C224.687 98.7957 224.135 101.249 223.062 103.549C221.989 105.818 220.517 107.842 218.769 109.529C217.021 111.215 214.966 112.595 212.666 113.577C210.367 114.589 208.005 115.079 205.613 115.079ZM205.613 79.231C203.804 79.231 202.209 79.5377 200.86 80.0897C199.542 80.6723 198.407 81.6229 197.548 82.9722C196.659 84.3215 196.015 86.0695 195.586 88.2161C195.156 90.3627 194.942 93.0612 194.942 96.2505C194.942 100.022 195.248 103.058 195.831 105.266C196.414 107.474 197.211 109.191 198.162 110.387C199.112 111.553 200.247 112.35 201.504 112.718C202.792 113.086 204.172 113.27 205.613 113.27C207.055 113.27 208.435 113.086 209.723 112.718C210.98 112.35 212.114 111.583 213.065 110.387C214.016 109.191 214.813 107.474 215.396 105.266C215.978 103.058 216.285 99.9917 216.285 96.2505C216.285 93.0612 216.07 90.3627 215.641 88.2161C215.212 86.0695 214.537 84.3215 213.678 82.9722C212.789 81.6229 211.685 80.6723 210.367 80.0897C209.017 79.507 207.423 79.231 205.613 79.231Z" fill="black"></path><path d="M37.5654 78.6177H23.3366C21.5273 78.0351 19.3807 77.6978 17.0501 77.6978C6.80778 77.6978 1.59461 83.8922 1.59461 91.436C1.59461 95.7598 3.25056 99.6237 6.65445 102.2C4.26253 103.948 2.26926 106.155 2.26926 109.161C2.26926 111.154 3.18923 112.534 4.56918 113.546C1.41062 115.417 0 117.992 0 121.611C0 127.069 3.89454 134 16.7128 134C31.831 134 35.6642 125.23 35.6642 119.464C35.6642 104.653 10.365 112.963 10.365 105.726C10.365 105.236 10.6103 104.745 11.0396 104.316C12.7876 104.898 14.7502 105.144 17.0808 105.144C27.3231 105.144 32.5363 98.9491 32.5363 91.4053C32.5363 89.3507 32.0456 87.2654 31.3096 85.4255H37.5961V78.6177H37.5654ZM25.3298 117.532V120.016C25.3298 122.286 24.6552 123.942 23.2752 125.046C21.8953 126.119 20.4233 126.671 17.8781 126.671C15.3328 126.671 13.4009 126.119 12.0823 125.046C10.7637 123.942 10.089 122.408 10.089 120.384V117.563C10.0583 117.532 17.0808 122.654 25.3298 117.532ZM17.0501 98.7037C13.8915 98.7037 10.273 97.0478 10.273 91.436C10.273 85.8242 13.8915 84.2602 17.0501 84.2602C20.178 84.2602 23.8272 85.8242 23.8272 91.436C23.8272 97.1398 20.2087 98.7037 17.0501 98.7037Z" fill="black"></path><path d="M56.7315 67.5475H40.2334V52H56.7315V67.5475ZM53.4503 62.365L53.1743 62.5183C51.8864 63.285 50.5064 63.7143 49.2491 63.7143C46.5505 63.7143 44.7719 62.089 44.7719 59.7584C44.7719 57.4892 46.6425 55.8025 49.1878 55.7719C50.5064 55.7719 51.6717 56.1092 53.0823 56.8758L53.3276 57.0292V54.9746L53.205 54.9439C51.6104 54.3306 50.3837 54.0546 49.1878 54.0546C47.3172 54.0546 45.6919 54.6679 44.5266 55.7105C43.3613 56.7532 42.6867 58.2558 42.6867 59.9424C42.6867 61.1384 43.1773 62.5183 44.2199 63.6223C45.2626 64.7263 46.8572 65.5236 49.0651 65.5236C50.9051 65.5236 52.1623 65.1249 53.297 64.5423L53.389 64.4809V62.365H53.4503Z" fill="black"></path><path d="M37.6881 67.5475H21.1899V52H37.6881V67.5475ZM33.7935 62.3037C33.7935 60.893 32.8429 59.8197 31.3403 59.4211C31.7389 59.2064 32.0763 58.9611 32.2909 58.6545C32.5976 58.2251 32.7509 57.7345 32.7509 57.1518C32.7509 56.4159 32.4749 55.6799 31.8616 55.1279C31.2483 54.5759 30.3283 54.2079 29.0404 54.2079H25.5138V65.4009H29.6537C31.1256 65.4009 32.1683 65.0022 32.8122 64.4196C33.4869 63.7756 33.7935 63.009 33.7935 62.3037Z" fill="black"></path><path d="M31.7389 62.0889C31.7389 62.4569 31.6163 62.8249 31.2789 63.1316C30.9416 63.4075 30.3896 63.6529 29.439 63.6529H27.5377V60.5863H29.347C30.2056 60.5863 30.7883 60.7703 31.1869 61.0156C31.5549 61.2609 31.7082 61.6289 31.7389 62.0889Z" fill="black"></path><path d="M30.1751 58.4091C30.5431 58.1638 30.6964 57.7958 30.6964 57.2438C30.6964 56.8758 30.6044 56.5385 30.3284 56.3238C30.0525 56.0785 29.5925 55.9252 28.8565 55.9252H27.5072V58.8077H28.4272C29.2551 58.8077 29.8378 58.6851 30.1751 58.4091Z" fill="black"></path><path d="M18.6754 67.5475H2.17725V52H18.6754V67.5475ZM14.7502 62.3037C14.7502 60.893 13.7995 59.8197 12.2969 59.4211C12.6956 59.2064 13.0329 58.9611 13.2476 58.6545C13.5542 58.2251 13.7075 57.7345 13.7075 57.1518C13.7075 56.4159 13.4315 55.6799 12.8182 55.1279C12.2049 54.5759 11.2543 54.2079 9.99699 54.2079H6.50111V65.4009H10.641C12.1129 65.4009 13.1556 65.0022 13.7995 64.4196C14.4742 63.7756 14.7502 63.009 14.7502 62.3037Z" fill="black"></path><path d="M11.1624 58.4091C11.5304 58.1638 11.6837 57.7958 11.6837 57.2438C11.6837 56.8758 11.5611 56.5385 11.3157 56.3238C11.0398 56.0785 10.5798 55.9252 9.8438 55.9252H8.49451V58.8077H9.41448C10.2424 58.8077 10.7944 58.6851 11.1624 58.4091Z" fill="black"></path><path d="M12.1437 61.0156C11.7757 60.7396 11.1624 60.5863 10.3038 60.5863H8.49451V63.6529H10.4264C11.3771 63.6529 11.9291 63.4382 12.2664 63.1316C12.6037 62.8249 12.6957 62.4569 12.7264 62.0889C12.6957 61.6289 12.5424 61.2609 12.1437 61.0156Z" fill="black"></path></g></g><defs><clipPath id="clip0_5827_31868"><rect width="309" height="180" fill="white"></rect></clipPath><clipPath id="clip1_5827_31868"><rect width="309.447" height="82" fill="white" transform="translate(0 52)"></rect></clipPath></defs></svg> 