<?xml version="1.0" encoding="UTF-8"?> <svg xmlns="http://www.w3.org/2000/svg" width="159" height="15" viewBox="0 0 159 15" fill="none"><g clip-path="url(#clip0_11930_37610)"><path d="M65.2139 7.5L51.5703 1V14L65.2139 7.5Z" fill="black"></path><path d="M0 0.999512H11.1179V3.47471H2.90994V6.37891H10.366V8.69811H2.90994V13.9982H0V0.999512Z" fill="black"></path><path d="M12.9297 0.999512H15.8782V13.9982H12.9297V0.999512Z" fill="black"></path><path d="M23.1181 13.9982L17.2031 0.999512H20.748L24.8713 10.5285L28.8017 0.999512H32.096L26.4509 13.9982H23.1181Z" fill="black"></path><path d="M33.4062 0.999512H44.9856V3.49421H36.3342V6.14491H43.9445V8.46411H36.3342V11.5048H44.9856V13.9995H33.4062V0.999512Z" fill="black"></path></g><path d="M73.6709 14V11.5L83.0909 3.2H73.9509V0.659999H87.3309V3.26L77.9309 11.46H87.6109V14H73.6709ZM92.3747 0.659999V8.22C92.3747 9.34 92.4947 9.98 92.8147 10.52C93.3547 11.46 94.3347 11.92 95.8347 11.92C97.4747 11.92 98.5147 11.38 98.9947 10.24C99.2147 9.76 99.2947 9.18 99.2947 8.22V0.659999H102.355V8.48C102.355 10.44 102.135 11.26 101.415 12.2C100.315 13.62 98.3547 14.38 95.8347 14.38C93.0547 14.38 90.9547 13.44 89.9547 11.76C89.4547 10.94 89.3147 10.18 89.3147 8.34V0.659999H92.3747ZM105.001 14V0.659999H112.841C114.601 0.659999 115.441 0.78 116.121 1.12C117.181 1.68 117.821 2.84 117.821 4.24C117.821 5.34 117.421 6.22 116.661 6.86C116.281 7.18 115.921 7.36 115.141 7.64C116.821 8 117.301 8.74 117.441 11.3C117.581 13.16 117.621 13.3 117.961 14H114.581C114.441 13.4 114.441 13.32 114.281 11.76C114.081 9.56 113.561 9 111.741 9H108.041V14H105.001ZM108.041 6.54H112.001C112.881 6.54 113.141 6.5 113.481 6.36C114.101 6.1 114.461 5.54 114.461 4.82C114.461 4.1 114.101 3.54 113.461 3.34C113.141 3.22 112.861 3.2 112.001 3.2H108.041V6.54ZM120.06 14V0.659999H123.12V14H120.06ZM137.64 8.98H141.18C140.46 12.44 137.72 14.38 133.52 14.38C128.74 14.38 125.34 11.44 125.34 7.28C125.34 5.1 126.24 3.28 127.94 1.96C129.44 0.819999 131.2 0.279999 133.48 0.279999C137.82 0.279999 140.58 2.18 141.18 5.58H137.64C137.42 4.78 137.2 4.4 136.62 3.86C135.78 3.1 134.76 2.74 133.44 2.74C130.62 2.74 128.74 4.58 128.74 7.3C128.74 10 130.72 11.92 133.48 11.92C135.62 11.92 137.08 10.88 137.64 8.98ZM143.068 14V0.659999H146.108V5.88H152.868V0.659999H155.908V14H152.868V8.42H146.108V14H143.068Z" fill="black"></path><defs><clipPath id="clip0_11930_37610"><rect width="65.2114" height="13" fill="white" transform="translate(0 1)"></rect></clipPath></defs></svg> 