<?xml version="1.0" encoding="UTF-8"?> <svg xmlns="http://www.w3.org/2000/svg" width="200" height="60" viewBox="0 0 200 60" fill="none"><g clip-path="url(#clip0_28_24)"><path d="M41.151 34.0037C40.9498 33.9534 41.0504 33.7018 41.3019 33.249C42.9622 30.18 45.7294 28.0669 47.7922 28.0669C48.4462 28.0669 49.05 28.2681 49.5531 28.7712C51.0121 30.2303 49.7543 32.3937 46.9872 33.8527C44.9244 34.9093 43.2138 36.6199 43.2138 39.0852C43.2138 41.8523 45.3269 46.1288 51.1631 46.1288C55.2886 46.1288 59.9173 43.9654 59.9173 36.6199V11.8162H63.6907V35.513C63.6907 43.7642 59.6154 47.9903 52.7227 47.9903C47.0375 47.9903 42.7107 45.0723 42.7107 39.8398C42.7107 37.123 43.8678 35.4627 45.1759 34.3055C46.9872 32.6452 49.05 32.0415 47.9431 30.6328C47.5406 30.1297 47.0375 29.9284 46.5344 29.9284C44.8741 29.9284 42.9119 31.9409 42.2579 32.6956C41.4026 33.6515 41.4026 34.1043 41.151 34.0037Z" fill="#00A79D"></path><path d="M78.4822 11.8162H82.8594L95.2864 47.0344H90.9093L86.4818 34.5068C85.5259 31.8403 85.0731 30.7334 84.6706 30.7334C84.1172 30.7334 83.9159 32.8968 83.765 34.2049C82.8091 41.7517 79.7904 47.6885 73.9542 47.6885C70.5833 47.6885 67.2124 45.676 67.2124 40.6448C67.2124 34.859 71.6398 31.9409 75.212 27.0606C79.8407 20.7717 79.74 15.7908 78.4822 11.8162ZM70.0299 37.3746C69.4261 41.6511 71.6398 43.8145 74.6586 43.8145C80.5953 43.8145 84.3184 35.513 83.614 28.4191C83.2116 24.2935 81.0482 17.9039 80.1425 17.9039C79.891 17.9039 79.4885 18.3064 79.1866 19.9164C77.9791 27.0103 70.9858 30.4315 70.0299 37.3746Z" fill="#00A79D"></path><path d="M98.3047 11.8162H107.612C114.304 11.8162 125.121 16.0927 125.121 30.6328C125.121 41.0976 119.486 47.0344 107.713 47.0344H98.3047V11.8162ZM107.663 46.6319C116.97 46.6319 120.844 39.9405 120.844 30.2303C120.844 17.5517 114.254 12.2187 106.153 12.2187H102.33V46.6319H107.663Z" fill="#00A79D"></path><path d="M133.674 46.6319C139.963 46.6319 147.913 47.1351 153.095 43.7138V47.0344H129.649V11.8162H151.535V15.1367C146.856 12.1683 140.869 12.2187 133.674 12.2187V27.3625C133.674 28.4694 133.674 29.7775 136.995 29.7775C140.919 29.7775 142.529 27.9662 144.995 28.0166C146.655 28.0669 148.114 28.9222 149.12 30.5825C148.214 29.7775 147.057 29.375 146.303 29.375C144.24 29.3247 141.372 31.9912 138.555 31.9409C136.341 31.9409 135.184 30.2303 134.379 29.6265C133.876 29.2744 133.674 29.4756 133.674 30.3812V46.6319Z" fill="#00A79D"></path></g><defs><clipPath id="clip0_28_24"><rect width="200" height="60" fill="white"></rect></clipPath></defs></svg> 