<svg width="75" height="75" viewBox="0 0 75 75" fill="none" xmlns="http://www.w3.org/2000/svg">
						<g clip-path="url(#clip0_54_66)">
							<path d="M57.8962 0H17.1038C12.5676 0 8.21719 1.80201 5.0096 5.0096C1.80201 8.21719 0 12.5676 0 17.1038V57.8962C0 62.4324 1.80201 66.7828 5.0096 69.9904C8.21719 73.198 12.5676 75 17.1038 75H57.8962C62.4324 75 66.7828 73.198 69.9904 69.9904C73.198 66.7828 75 62.4324 75 57.8962V17.1038C75 12.5676 73.198 8.21719 69.9904 5.0096C66.7828 1.80201 62.4324 0 57.8962 0ZM25.3577 60.5462C25.3698 60.7555 25.3389 60.9651 25.267 61.1621C25.1951 61.3591 25.0837 61.5393 24.9396 61.6917C24.7955 61.844 24.6218 61.9653 24.4291 62.0481C24.2365 62.1309 24.0289 62.1734 23.8192 62.1731H16.9731C16.5602 62.163 16.1678 61.9914 15.8801 61.6951C15.5924 61.3988 15.4325 61.0014 15.4346 60.5885V32.1154C15.429 31.9098 15.4646 31.7052 15.5394 31.5136C15.6141 31.3221 15.7266 31.1474 15.87 31.0001C16.0134 30.8527 16.1849 30.7356 16.3744 30.6556C16.5639 30.5757 16.7674 30.5345 16.9731 30.5346H23.8192C24.0249 30.5345 24.2284 30.5757 24.4179 30.6556C24.6074 30.7356 24.7789 30.8527 24.9223 31.0001C25.0657 31.1474 25.1782 31.3221 25.253 31.5136C25.3277 31.7052 25.3633 31.9098 25.3577 32.1154V60.5462ZM20.2692 24.5462C19.528 24.5406 18.7952 24.3891 18.1125 24.1003C17.4298 23.8115 16.8107 23.3911 16.2905 22.8631C15.7704 22.335 15.3593 21.7097 15.0808 21.0228C14.8022 20.3359 14.6618 19.6008 14.6673 18.8596C14.6729 18.1184 14.8244 17.3855 15.1131 16.7029C15.4019 16.0202 15.8223 15.4011 16.3504 14.8809C16.8784 14.3607 17.5038 13.9497 18.1907 13.6711C18.8776 13.3926 19.6126 13.2521 20.3538 13.2577C21.8251 13.3055 23.2193 13.9264 24.2392 14.9879C25.259 16.0494 25.8236 17.4674 25.8126 18.9393C25.8016 20.4113 25.2157 21.8207 24.1801 22.8667C23.1444 23.9128 21.741 24.5127 20.2692 24.5385M61.8731 60.5C61.8713 60.8886 61.7187 61.2614 61.4475 61.5397C61.1763 61.8181 60.8077 61.9804 60.4192 61.9923H53.1923C52.8032 61.9803 52.434 61.8175 52.1627 61.5384C51.8914 61.2592 51.7393 60.8854 51.7385 60.4962V47.3269C51.7385 45.3615 52.3385 38.7769 46.5231 38.7769C41.9885 38.7769 41.0923 43.3923 40.9192 45.4462V60.7961C40.9194 61.1861 40.7677 61.5608 40.4963 61.8408C40.2249 62.1208 39.8552 62.2842 39.4654 62.2962H32.4538C32.0567 62.2951 31.6761 62.1366 31.3957 61.8555C31.1152 61.5743 30.9577 61.1933 30.9577 60.7961V31.9769C30.9697 31.5872 31.133 31.2174 31.413 30.946C31.693 30.6746 32.0677 30.5229 32.4577 30.5231H39.4654C39.8553 30.5229 40.23 30.6746 40.5101 30.946C40.7901 31.2174 40.9534 31.5872 40.9654 31.9769V34.4577C41.9886 32.9601 43.4013 31.7703 45.051 31.0165C46.7008 30.2628 48.525 29.9739 50.3269 30.1808C62 30.1808 61.9577 41.0846 61.9577 47.2846L61.8731 60.5Z" fill="black"></path>
						</g>
						<defs>
							<clipPath id="clip0_54_66">
								<rect width="75" height="75" fill="white"></rect>
							</clipPath>
						</defs>
					</svg>