<?xml version="1.0" encoding="UTF-8"?> <svg xmlns="http://www.w3.org/2000/svg" width="259" height="15" viewBox="0 0 259 15" fill="none"><g clip-path="url(#clip0_11954_22656)"><path d="M65.2139 7.5L51.5703 1V14L65.2139 7.5Z" fill="black"></path><path d="M0 0.999512H11.1179V3.47471H2.90994V6.37891H10.366V8.69811H2.90994V13.9982H0V0.999512Z" fill="black"></path><path d="M12.9297 0.999512H15.8782V13.9982H12.9297V0.999512Z" fill="black"></path><path d="M23.1181 13.9982L17.2031 0.999512H20.748L24.8713 10.5285L28.8017 0.999512H32.096L26.4509 13.9982H23.1181Z" fill="black"></path><path d="M33.4062 0.999512H44.9856V3.49421H36.3342V6.14491H43.9445V8.46411H36.3342V11.5048H44.9856V13.9995H33.4062V0.999512Z" fill="black"></path></g><path d="M74.5909 14V0.659999H81.9309C83.7109 0.659999 84.5909 0.799999 85.3709 1.16C86.7909 1.86 87.6509 3.36 87.6509 5.16C87.6509 7.12 86.6109 8.7 84.8709 9.4C84.2309 9.64 83.4109 9.76 82.1909 9.76H77.6309V14H74.5909ZM77.6309 7.3H81.3509C82.3109 7.3 82.6709 7.26 83.0509 7.12C83.8509 6.84 84.2509 6.18 84.2509 5.2C84.2509 4.26 83.8309 3.6 83.0709 3.36C82.6909 3.24 82.3509 3.2 81.4109 3.2H77.6309V7.3ZM87.0191 14L93.4191 0.659999H96.4591L102.999 14H99.3791L97.9591 11H91.7191L90.3591 14H87.0191ZM92.8191 8.64H96.8791L94.8191 4.2L92.8191 8.64ZM104.337 14V0.659999H107.377V11.46H114.897V14H104.337ZM116.525 14V0.659999H120.685L125.885 10.44L131.005 0.659999H135.225V14H132.165V4.74L127.225 14H124.425L119.465 4.74V14H116.525ZM152.561 0.659999V8.86C152.561 11.22 152.441 11.76 151.721 12.64C150.781 13.78 149.321 14.38 147.441 14.38C145.241 14.38 143.581 13.56 142.781 12.08C142.361 11.28 142.201 10.36 142.201 8.74H145.241C145.301 9.94 145.361 10.36 145.521 10.78C145.821 11.56 146.461 11.94 147.481 11.94C148.361 11.94 149.021 11.58 149.281 10.98C149.481 10.46 149.521 10.12 149.521 8.6V0.659999H152.561ZM158.117 0.659999V8.22C158.117 9.34 158.237 9.98 158.557 10.52C159.097 11.46 160.077 11.92 161.577 11.92C163.217 11.92 164.257 11.38 164.737 10.24C164.957 9.76 165.037 9.18 165.037 8.22V0.659999H168.097V8.48C168.097 10.44 167.877 11.26 167.157 12.2C166.057 13.62 164.097 14.38 161.577 14.38C158.797 14.38 156.697 13.44 155.697 11.76C155.197 10.94 155.057 10.18 155.057 8.34V0.659999H158.117ZM170.743 14V0.659999H174.903L180.103 10.44L185.223 0.659999H189.443V14H186.383V4.74L181.443 14H178.643L173.683 4.74V14H170.743ZM192.228 14V0.659999H204.248V3.22H195.268V5.94H203.168V8.32H195.268V11.44H204.248V14H192.228ZM206.407 14V0.659999H209.467V14H206.407ZM212.247 14V0.659999H220.087C221.847 0.659999 222.687 0.78 223.367 1.12C224.427 1.68 225.067 2.84 225.067 4.24C225.067 5.34 224.667 6.22 223.907 6.86C223.527 7.18 223.167 7.36 222.387 7.64C224.067 8 224.547 8.74 224.687 11.3C224.827 13.16 224.867 13.3 225.207 14H221.827C221.687 13.4 221.687 13.32 221.527 11.76C221.327 9.56 220.807 9 218.987 9H215.287V14H212.247ZM215.287 6.54H219.247C220.127 6.54 220.387 6.5 220.727 6.36C221.347 6.1 221.707 5.54 221.707 4.82C221.707 4.1 221.347 3.54 220.707 3.34C220.387 3.22 220.107 3.2 219.247 3.2H215.287V6.54ZM225.906 14L232.306 0.659999H235.346L241.886 14H238.266L236.846 11H230.606L229.246 14H225.906ZM231.706 8.64H235.766L233.706 4.2L231.706 8.64ZM243.224 14V0.659999H246.264V5.88H253.024V0.659999H256.064V14H253.024V8.42H246.264V14H243.224Z" fill="black"></path><defs><clipPath id="clip0_11954_22656"><rect width="65.2114" height="13" fill="white" transform="translate(0 1)"></rect></clipPath></defs></svg> 