<svg width="75" height="75" viewBox="0 0 75 75" fill="none" xmlns="http://www.w3.org/2000/svg">
						<g clip-path="url(#clip0_54_69)">
							<path fill-rule="evenodd" clip-rule="evenodd" d="M37.5 0C16.7888 0 0 16.7888 0 37.5C0 58.2112 16.7888 75 37.5 75C58.2112 75 75 58.2112 75 37.5C75 16.7888 58.2112 0 37.5 0ZM19.7588 31.65C31.9088 28.26 44.1525 29.9662 54.7613 34.5525C55.6726 34.9375 56.6992 34.9468 57.6174 34.5783C58.5356 34.2098 59.271 33.4933 59.6633 32.585C60.0556 31.6768 60.073 30.6503 59.7118 29.7292C59.3507 28.8081 58.6401 28.067 57.735 27.6675C45.8475 22.53 31.8375 20.4937 17.7412 24.4275C16.7981 24.7077 16.0029 25.3474 15.5271 26.2086C15.0512 27.0698 14.9329 28.0834 15.1976 29.0311C15.4623 29.9787 16.0888 30.7843 16.9421 31.2742C17.7953 31.7641 18.8069 31.8991 19.7588 31.65ZM21.5437 42.3975C31.9987 39.4837 44.0287 41.3062 50.7187 45.4125C51.1386 45.6701 51.605 45.8424 52.0914 45.9197C52.5779 45.997 53.0747 45.9777 53.5537 45.863C54.0327 45.7482 54.4844 45.5403 54.883 45.251C55.2816 44.9617 55.6193 44.5967 55.8769 44.1769C56.1344 43.7571 56.3068 43.2906 56.3841 42.8042C56.4614 42.3178 56.4421 41.8209 56.3273 41.3419C56.2126 40.8629 56.0046 40.4112 55.7153 40.0126C55.426 39.614 55.0611 39.2763 54.6412 39.0187C45.9712 33.6937 31.7513 31.7663 19.53 35.175C18.5929 35.4599 17.8044 36.1001 17.3332 36.9588C16.862 37.8175 16.7454 38.8265 17.0085 39.77C17.2716 40.7135 17.8933 41.5166 18.7409 42.0077C19.5884 42.4987 20.5944 42.6386 21.5437 42.3975ZM23.16 52.725C27.3975 51.75 32.1113 51.7387 36.255 52.3837C40.53 53.0437 43.6125 54.3112 44.9475 55.4062C45.7183 56.0358 46.7076 56.3334 47.6978 56.2335C48.688 56.1337 49.5979 55.6445 50.2275 54.8737C50.8571 54.103 51.1546 53.1137 51.0548 52.1235C50.9549 51.1333 50.4658 50.2233 49.695 49.5938C46.8337 47.2575 42.195 45.7125 37.4063 44.97C32.4863 44.2087 26.7975 44.1938 21.48 45.42C20.9861 45.5161 20.5166 45.7106 20.0995 45.9919C19.6823 46.2732 19.326 46.6356 19.0518 47.0575C18.7777 47.4794 18.5912 47.9522 18.5035 48.4476C18.4159 48.9431 18.4288 49.4511 18.5416 49.9415C18.6543 50.4318 18.8646 50.8945 19.1599 51.3018C19.4552 51.7092 19.8295 52.053 20.2604 52.3127C20.6914 52.5725 21.1702 52.7428 21.6683 52.8136C22.1665 52.8845 22.6737 52.8543 23.16 52.725Z" fill="black"></path>
						</g>
						<defs>
							<clipPath id="clip0_54_69">
								<rect width="75" height="75" rx="17" fill="white"></rect>
							</clipPath>
						</defs>
					</svg>