<?xml version="1.0" encoding="UTF-8"?> <svg xmlns="http://www.w3.org/2000/svg" width="2639" height="1000" viewBox="0 0 2639 1000" fill="none"><path d="M2630.65 789.314C2596.24 788.844 2582.53 785.25 2572 773.972C2559.67 760.787 2550.74 735.91 2534.52 690.715L2532.7 685.601L2325.74 113.387C2321.56 101.059 2309.54 93.4019 2294.34 93.4019H1866.25C1853.7 93.4019 1844.05 99.8701 1840.43 110.678L1759.89 351.384C1730.87 438.483 1681.9 457.335 1646.16 471.1C1622.06 480.388 1601.25 488.404 1601.25 514.858C1601.25 553.777 1642.9 565.58 1687.01 578.102C1746.46 594.964 1813.84 614.092 1813.84 698.427C1813.84 724.3 1806.08 749.565 1792.51 767.725C1782.28 781.408 1763.87 797.745 1734.22 797.745C1674.46 797.745 1641.27 704.26 1586.29 549.41C1580.13 532.078 1573.77 514.166 1567.06 495.481L1429.39 114.272C1424.72 101.39 1413.77 93.4296 1400.84 93.4296H944.551V114.935H952.014C1053.86 114.935 1100.93 117.948 1124.26 146.806C1148.55 176.88 1149.63 236.117 1149.63 356.608V542.057C1149.63 651.021 1115.99 780.911 955.745 780.911C898.754 780.911 858.374 766.288 832.255 736.186C807.574 707.715 795.579 665.368 795.579 606.684V148.658C795.579 133.206 792.511 122.232 788.338 114.907H837.728V93.4019H298.332V114.907H305.794C404.547 114.907 453.081 116.925 477.264 162.341C502.333 209.415 503.438 302.07 503.438 490.505V737.402L262.291 262.321V263.869L199.551 139.84C187.252 115.239 180.425 102.883 171.028 95.8068C160.636 87.9841 148.226 87.9841 131.063 87.9841H0V109.49H7.46244C47.4832 109.49 69.5389 109.49 76.9737 117.036C83.2753 123.449 83.0542 139.923 82.6396 167.233C82.5291 175.056 82.3909 183.901 82.3909 193.797V657.268C82.3909 719.656 82.4185 748.791 73.0214 765.984C65.3654 780.026 51.2421 789.12 7.4348 789.12H0V810.626H309V789.12H301.538C202.785 789.12 154.251 781.85 130.068 736.435C105.027 689.361 103.894 610.692 103.894 408.27V161.373L345.041 636.454V634.906L407.781 758.935C420.08 783.537 426.907 795.892 436.304 802.969C446.696 810.791 459.106 810.791 476.269 810.791H607.36V789.286H599.897C559.876 789.286 537.821 789.286 530.386 781.74C524.057 775.327 524.305 758.852 524.72 731.542C524.831 723.719 524.969 714.874 524.969 704.978V246.759C524.969 184.371 524.941 150.012 534.338 132.792C541.994 118.75 556.118 114.907 599.925 114.907H607.387H614.85C658.16 114.907 682.039 114.907 691.575 124.25C701.027 133.538 701.027 156.868 701.027 199.215V612.267C701.027 645.991 706.859 676.535 718.384 703.071C729.523 728.75 746.023 750.753 767.415 768.472C808.237 802.305 866.887 820.19 937.006 820.19C1018.4 820.19 1080.09 791.193 1120.33 734.002C1153.55 686.818 1171.11 620.449 1171.11 542.029V246.759C1171.11 184.371 1171.08 150.012 1180.47 132.792C1188.13 118.75 1202.23 114.907 1246.06 114.907H1308.11C1313.58 114.907 1317.34 115.93 1319.25 117.976C1321.71 120.574 1322.65 126.019 1322.18 135.086L1287.55 622.993C1281.83 705.614 1277.04 745.999 1263.97 766.951C1254.13 782.707 1241.31 789.314 1187.3 789.314H1179.84V810.819H1490.72V789.314H1434.56C1370.6 789.314 1350.56 780.828 1335.94 765.155C1312.45 740.001 1305.24 687.979 1311.84 591.232L1342.6 152.666L1520.26 645.714C1536.05 689.001 1554.87 733.615 1585.49 766.73C1618.74 802.692 1661.58 820.162 1716.47 820.162C1766.61 820.162 1795.6 795.201 1811.11 774.276C1830.37 748.238 1837.25 717.583 1837.28 697.543C1839.05 596.097 1751.74 571.883 1687.98 554.192C1644.67 542.195 1618.13 533.848 1618.13 514.83C1618.13 500.926 1628.88 496.586 1653.23 488.1C1691.35 474.804 1748.97 454.681 1780.7 358.874L1848.83 154.49L1886.97 705.476C1890.48 758.217 1945.68 831.302 2027.54 891.616C2070.77 923.46 2116.29 958.288 2165.27 976.67C2221.13 997.623 2564.09 999.972 2618.46 999.972H2638.11V905.41H2270.9C2260.21 905.41 2249.87 905.465 2239.84 905.492C2230.44 905.52 2221.35 905.575 2212.5 905.575C2138.02 905.575 2082.44 903.364 2045.32 874.782C2007.78 845.897 1988.68 789.894 1981.47 687.564L1944.02 154.629C1942.64 137.353 1941.73 125.992 1945.73 121.652C1952.01 114.852 1977.91 114.852 2017.1 114.852H2203.58C2210.49 114.852 2215.27 116.289 2217.09 118.888C2218.91 121.514 2218.61 126.6 2216.26 132.847L2046.73 600.299C2033.04 638.03 2026.69 672.002 2027.82 701.33C2028.84 727.921 2035.97 750.864 2049.05 769.494C2081.08 815.186 2136.36 820.107 2158.66 820.107C2230.36 820.107 2278.5 779.473 2278.5 718.965C2278.5 658.457 2233.81 630.788 2194.37 606.933C2163.53 588.274 2136.91 572.159 2136.16 543.633C2135.78 528.651 2139.84 516.682 2148.24 508.058C2158.3 497.747 2174.86 492.302 2196.11 492.302C2268.31 492.302 2360.26 553.943 2415.07 638.97L2440.08 707.494C2443.89 717.915 2447.13 727.175 2449.95 735.357C2458.93 761.23 2464.76 777.981 2475.46 789.258H2391.88V810.764H2638.14V789.369L2630.79 789.258L2630.65 789.314ZM2556.8 932.167C2560.25 928.518 2562.77 926.196 2564.34 925.201H2567C2576.06 930.923 2582.2 935.705 2585.35 939.547C2588.5 943.389 2590.07 947.011 2590.07 950.355C2590.07 957.459 2581.89 966.83 2565.5 978.467H2563.13C2558.98 974.127 2554.84 970.119 2550.69 966.471C2546.54 962.822 2542.51 959.422 2538.56 956.271V953.617C2540.32 951.046 2542.95 947.757 2546.41 943.694C2549.86 939.658 2553.32 935.788 2556.77 932.139L2556.8 932.167ZM2505.28 932.167C2508.73 928.518 2511.25 926.196 2512.82 925.201H2515.48C2524.54 930.923 2530.68 935.705 2533.83 939.547C2536.98 943.389 2538.56 947.011 2538.56 950.355C2538.56 957.459 2530.38 966.83 2513.99 978.467H2511.61C2507.46 974.127 2503.32 970.119 2499.17 966.471C2495.03 962.822 2490.99 959.422 2487.04 956.271V953.617C2488.81 951.046 2491.43 947.757 2494.89 943.694C2498.34 939.658 2501.8 935.788 2505.25 932.139L2505.28 932.167ZM2435.57 953.617C2437.34 951.046 2439.97 947.757 2443.42 943.694C2446.88 939.658 2450.33 935.788 2453.79 932.139C2457.24 928.491 2459.76 926.169 2461.33 925.174H2463.99C2473.05 930.895 2479.19 935.677 2482.34 939.52C2485.49 943.362 2487.07 946.983 2487.07 950.328C2487.07 957.432 2478.88 966.802 2462.49 978.439H2460.12C2455.97 974.1 2451.83 970.092 2447.68 966.443C2443.53 962.794 2439.5 959.394 2435.55 956.243V953.589L2435.57 953.617ZM2323.33 517.677C2280.13 487.05 2236.11 470.879 2195.97 470.879C2168.86 470.879 2146.75 478.84 2132.05 493.905C2119.5 506.758 2113.11 524.118 2113.58 544.103C2114.55 584.543 2150.18 605.246 2184.62 625.232C2222.42 647.207 2261.56 669.901 2261.56 719.076C2261.56 740.498 2251.56 760.207 2233.37 774.553C2214.44 789.507 2187.85 797.772 2158.52 797.772C2119.33 797.772 2087.55 783.288 2069.03 756.945C2044.96 722.697 2044.65 670.011 2068.15 604.528L2235.3 142.77L2394.81 583.741C2373.36 558.504 2348.87 535.838 2323.31 517.732L2323.33 517.677Z" fill="white"></path><path d="M2325.08 67.3632L2281.38 0H2218.47L2319.88 67.3632H2325.08Z" fill="white"></path><path d="M2218.47 0H2155.54L2111.87 67.3632H2117.04L2218.47 0Z" fill="white"></path></svg> 