<?xml version="1.0" encoding="UTF-8"?> <svg xmlns="http://www.w3.org/2000/svg" width="132" height="15" viewBox="0 0 132 15" fill="none"><g clip-path="url(#clip0_11930_37619)"><path d="M65.2139 7.5L51.5703 1V14L65.2139 7.5Z" fill="black"></path><path d="M0 0.999512H11.1179V3.47471H2.90994V6.37891H10.366V8.69811H2.90994V13.9982H0V0.999512Z" fill="black"></path><path d="M12.9297 0.999512H15.8782V13.9982H12.9297V0.999512Z" fill="black"></path><path d="M23.1181 13.9982L17.2031 0.999512H20.748L24.8713 10.5285L28.8017 0.999512H32.096L26.4509 13.9982H23.1181Z" fill="black"></path><path d="M33.4062 0.999512H44.9856V3.49421H36.3342V6.14491H43.9445V8.46411H36.3342V11.5048H44.9856V13.9995H33.4062V0.999512Z" fill="black"></path></g><path d="M74.5909 14V0.659999H77.6309V11.46H85.1509V14H74.5909ZM89.5036 0.659999V8.22C89.5036 9.34 89.6236 9.98 89.9436 10.52C90.4836 11.46 91.4636 11.92 92.9636 11.92C94.6036 11.92 95.6436 11.38 96.1236 10.24C96.3436 9.76 96.4236 9.18 96.4236 8.22V0.659999H99.4836V8.48C99.4836 10.44 99.2636 11.26 98.5436 12.2C97.4436 13.62 95.4836 14.38 92.9636 14.38C90.1836 14.38 88.0836 13.44 87.0836 11.76C86.5836 10.94 86.4436 10.18 86.4436 8.34V0.659999H89.5036ZM100.79 14L106.45 7.16L100.79 0.659999H104.99L108.45 4.86L111.87 0.659999H115.87L110.43 7.16L116.25 14H112.17L108.45 9.44L104.73 14H100.79ZM117.599 14V0.659999H129.619V3.22H120.639V5.94H128.539V8.32H120.639V11.44H129.619V14H117.599Z" fill="black"></path><defs><clipPath id="clip0_11930_37619"><rect width="65.2114" height="13" fill="white" transform="translate(0 1)"></rect></clipPath></defs></svg> 