<?xml version="1.0" encoding="UTF-8"?> <svg xmlns="http://www.w3.org/2000/svg" width="200" height="60" viewBox="0 0 200 60" fill="none"><g clip-path="url(#clip0_43_2)"><path d="M30.1057 34.7745C29.8666 34.7148 29.9862 34.4159 30.285 33.878C32.2574 30.232 35.5448 27.7216 37.9954 27.7216C38.7724 27.7216 39.4897 27.9607 40.0874 28.5584C41.8207 30.2917 40.3264 32.8619 37.0391 34.5952C34.5885 35.8504 32.5563 37.8826 32.5563 40.8113C32.5563 44.0987 35.0666 49.1792 42 49.1792C46.9012 49.1792 52.4001 46.6091 52.4001 37.8826V8.41577H56.8828V36.5676C56.8828 46.37 52.0414 51.3907 43.8529 51.3907C37.0988 51.3907 31.9586 47.924 31.9586 41.7079C31.9586 38.4803 33.3333 36.5079 34.8873 35.1331C37.0391 33.1607 39.4897 32.4435 38.1747 30.7699C37.6965 30.1722 37.0988 29.9331 36.5011 29.9331C34.5287 29.9331 32.1977 32.3239 31.4207 33.2205C30.4046 34.3561 30.4046 34.8941 30.1057 34.7745Z" fill="white"></path><path d="M74.455 8.41577H79.655L94.4183 50.2551H89.2183L83.9585 35.3722C82.8228 32.2044 82.2849 30.8895 81.8067 30.8895C81.1493 30.8895 80.9102 33.4596 80.7309 35.0136C79.5952 43.9792 76.009 51.0321 69.0756 51.0321C65.071 51.0321 61.0664 48.6413 61.0664 42.6642C61.0664 35.7906 66.3262 32.3239 70.5699 26.5262C76.0688 19.0549 75.9492 13.1376 74.455 8.41577ZM64.4135 38.7792C63.6963 43.8596 66.3262 46.4298 69.9124 46.4298C76.9653 46.4298 81.3883 36.5676 80.5516 28.14C80.0734 23.2388 77.5033 15.648 76.4274 15.648C76.1286 15.648 75.6504 16.1262 75.2918 18.0388C73.8573 26.4664 65.5492 30.5308 64.4135 38.7792Z" fill="white"></path><path d="M98.0039 8.41577H109.061C117.011 8.41577 129.862 13.4963 129.862 30.7699C129.862 43.2022 123.167 50.2551 109.181 50.2551H98.0039V8.41577ZM109.121 49.7769C120.179 49.7769 124.781 41.8274 124.781 30.2918C124.781 15.2296 116.951 8.89394 107.328 8.89394H102.786V49.7769H109.121Z" fill="white"></path><path d="M140.023 49.7769C147.495 49.7769 156.938 50.3746 163.095 46.3102V50.2551H135.242V8.41577H161.242V12.3606C155.683 8.83417 148.571 8.89394 140.023 8.89394V26.8848C140.023 28.1998 140.023 29.7538 143.968 29.7538C148.63 29.7538 150.543 27.6021 153.472 27.6618C155.444 27.7216 157.177 28.7377 158.373 30.7101C157.297 29.7538 155.922 29.2757 155.026 29.2757C152.575 29.2159 149.168 32.3837 145.821 32.3239C143.191 32.3239 141.816 30.2917 140.86 29.5745C140.262 29.1561 140.023 29.3952 140.023 30.4711V49.7769Z" fill="white"></path></g><defs><clipPath id="clip0_43_2"><rect width="200" height="60" fill="white"></rect></clipPath></defs></svg> 