<?xml version="1.0" encoding="UTF-8"?> <svg xmlns="http://www.w3.org/2000/svg" width="160" height="55" viewBox="0 0 160 55" fill="none"><g clip-path="url(#clip0_39_68)"><mask id="mask0_39_68" style="mask-type:luminance" maskUnits="userSpaceOnUse" x="0" y="0" width="160" height="55"><path d="M160 0H0V54.7945H160V0Z" fill="white"></path></mask><g mask="url(#mask0_39_68)"><mask id="mask1_39_68" style="mask-type:luminance" maskUnits="userSpaceOnUse" x="-11" y="-40" width="182" height="133"><path d="M171 -39.4766H-11V92.7652H171V-39.4766Z" fill="white"></path></mask><g mask="url(#mask1_39_68)"><mask id="mask2_39_68" style="mask-type:luminance" maskUnits="userSpaceOnUse" x="-11" y="-40" width="182" height="133"><path d="M-11 -39.4766H171V92.7652H-11V-39.4766Z" fill="white"></path></mask><g mask="url(#mask2_39_68)"><path d="M47.9312 44.7353C48.6097 44.7353 48.9433 44.4153 48.9433 43.8326C48.9433 43.2611 48.6097 42.9526 47.9312 42.9526H44.2386L44.2499 44.7353H47.9312ZM47.7642 41.5582C48.3316 41.5582 48.6986 41.4093 48.6986 40.8726C48.6986 40.3126 48.3316 40.1637 47.7642 40.1637H44.2274L44.2386 41.5582H47.7642ZM42.27 38.4492H48.1538C49.7662 38.4492 50.6559 39.2605 50.6559 40.4838C50.6559 41.5693 49.8886 42.061 48.3537 42.1867V42.2665C50.0443 42.3579 50.9119 43.0552 50.9119 44.2436C50.9119 45.5239 49.9107 46.4499 48.3984 46.4499H42.27V38.4492Z" fill="black"></path></g><mask id="mask3_39_68" style="mask-type:luminance" maskUnits="userSpaceOnUse" x="-11" y="-40" width="182" height="133"><path d="M-11 -39.4766H171V92.7652H-11V-39.4766Z" fill="white"></path></mask><g mask="url(#mask3_39_68)"><path d="M57.8867 43.8669L53.8159 38.4492H56.2296L58.8654 42.1529L61.5016 38.4492H63.9148L59.8445 43.8558V46.4503H57.8867V43.8669Z" fill="black"></path></g><mask id="mask4_39_68" style="mask-type:luminance" maskUnits="userSpaceOnUse" x="-11" y="-40" width="182" height="133"><path d="M-11 -39.4766H171V92.7652H-11V-39.4766Z" fill="white"></path></mask><g mask="url(#mask4_39_68)"><path d="M74.6494 38.4492H82.3795V40.1637H76.6183V41.387H81.8345V42.9981H76.6183V46.4499H74.6494V38.4492Z" fill="black"></path></g><mask id="mask5_39_68" style="mask-type:luminance" maskUnits="userSpaceOnUse" x="-11" y="-40" width="182" height="133"><path d="M-11 -39.4766H171V92.7652H-11V-39.4766Z" fill="white"></path></mask><g mask="url(#mask5_39_68)"><path d="M86.6064 38.4492H88.5753V46.4499H86.6064V38.4492Z" fill="black"></path></g><mask id="mask6_39_68" style="mask-type:luminance" maskUnits="userSpaceOnUse" x="-11" y="-40" width="182" height="133"><path d="M-11 -39.4766H171V92.7652H-11V-39.4766Z" fill="white"></path></mask><g mask="url(#mask6_39_68)"><path d="M103.468 38.4492L99.2632 46.4499H96.5166L92.3008 38.4492H94.6036L97.8957 44.9872L101.177 38.4492H103.468Z" fill="black"></path></g><mask id="mask7_39_68" style="mask-type:luminance" maskUnits="userSpaceOnUse" x="-11" y="-40" width="182" height="133"><path d="M-11 -39.4766H171V92.7652H-11V-39.4766Z" fill="white"></path></mask><g mask="url(#mask7_39_68)"><path d="M107.207 38.4492H115.048V40.1637H109.175V41.4325H114.392V43.044H109.175V44.7469H115.048V46.4499H107.207V38.4492Z" fill="black"></path></g><mask id="mask8_39_68" style="mask-type:luminance" maskUnits="userSpaceOnUse" x="-11" y="-40" width="182" height="133"><path d="M-11 -39.4766H171V92.7652H-11V-39.4766Z" fill="white"></path></mask><g mask="url(#mask8_39_68)"><path d="M25.7779 25.3589C25.7455 25.3589 25.7129 25.3496 25.6637 25.3417V20.3763C25.7314 20.3712 25.7811 20.3638 25.8303 20.3638C28.4025 20.3647 30.9742 20.3549 33.5464 20.3744C34.4203 20.3814 35.2432 20.6212 35.9325 21.2108C37.1378 22.2425 37.006 23.9041 35.6586 24.7271C34.9995 25.1298 34.2736 25.3348 33.5188 25.3417C30.9385 25.3654 28.3582 25.3561 25.7779 25.3589ZM25.662 12.6637C25.7247 12.6545 25.7725 12.641 25.8208 12.641C28.3348 12.6433 30.8487 12.6419 33.3626 12.6545C34.0533 12.6577 34.7164 12.8154 35.3231 13.1708C36.4918 13.8559 36.6634 15.2128 35.7023 16.1879C35.1394 16.7594 34.4316 17.0154 33.6678 17.1282C33.3969 17.1681 33.1207 17.1848 32.8471 17.1852C30.5246 17.1894 28.202 17.1875 25.8795 17.188H25.662V12.6637ZM33.3003 28.5286C34.4763 28.5249 35.6197 28.3027 36.6986 27.8078C38.1657 27.1342 39.2843 26.1025 39.798 24.4887C40.3889 22.6331 39.8743 20.8643 38.4144 19.7162C37.7563 19.1985 36.9979 18.9109 36.1235 18.7485C36.3754 18.678 36.5668 18.6293 36.7555 18.5713C38.4903 18.0392 39.6066 16.4987 39.58 14.6422C39.5542 12.8758 38.7661 11.5319 37.3419 10.5832C36.1018 9.7575 34.7101 9.47222 33.2507 9.47266C30.7607 9.47357 28.2707 9.47222 25.7806 9.47314C24.6485 9.47357 23.5159 9.47684 22.3833 9.47916V28.5347C26.0226 28.5342 29.6615 28.5402 33.3003 28.5286Z" fill="black"></path></g><mask id="mask9_39_68" style="mask-type:luminance" maskUnits="userSpaceOnUse" x="-11" y="-40" width="182" height="133"><path d="M-11 -39.4766H171V92.7652H-11V-39.4766Z" fill="white"></path></mask><g mask="url(#mask9_39_68)"><path d="M47.292 28.5244H63.4854V25.3862H50.5318V19.4791C50.6126 19.5909 50.6609 19.654 50.7056 19.7198C50.9209 20.0348 51.1281 20.3558 51.3502 20.6657C52.6765 22.5143 55.1414 22.5352 56.4844 20.7005C56.9142 20.1132 57.303 19.4939 57.7175 18.8941C57.9319 18.5829 58.0037 18.5843 58.22 18.9039C58.5761 19.4304 58.9255 19.9625 59.2739 20.4946C59.5808 20.9631 59.9567 21.3555 60.4371 21.6366C60.9069 21.9112 61.4081 22.0601 61.981 22.0527V21.7544C61.981 21.1208 61.9521 20.4857 61.9897 19.8548C62.0234 19.2815 61.9376 18.7893 61.5131 18.3722C61.3189 18.1816 61.2052 17.907 61.0418 17.6801C60.8043 17.3503 60.572 17.014 60.3075 16.7074C58.939 15.1195 56.6843 15.2085 55.4387 16.9041C55.0079 17.4909 54.6171 18.1088 54.2047 18.7099C53.9787 19.0379 53.8799 19.0388 53.6573 18.7095C53.2732 18.1403 52.8981 17.5642 52.514 16.995C52.0693 16.3367 51.4585 15.9118 50.7169 15.6859C50.5589 15.6377 50.5119 15.5667 50.5137 15.402C50.5214 14.5461 50.5169 13.6898 50.5183 12.8339C50.5183 12.7681 50.53 12.7026 50.539 12.6141H63.4873V9.49023H47.292V28.5244Z" fill="black"></path></g><mask id="mask10_39_68" style="mask-type:luminance" maskUnits="userSpaceOnUse" x="-11" y="-40" width="182" height="133"><path d="M-11 -39.4766H171V92.7652H-11V-39.4766Z" fill="white"></path></mask><g mask="url(#mask10_39_68)"><path d="M79.3706 22.2893C79.572 22.5732 79.7465 22.8868 79.5754 23.2356C79.4019 23.5882 79.055 23.6592 78.7003 23.6629C78.2686 23.6675 77.9419 23.4402 77.6561 23.1396C77.3116 22.7773 77.1006 22.3371 76.9623 21.837C78.0754 21.4093 78.8753 21.5893 79.3706 22.2893ZM81.8869 9.66838C81.8219 9.51948 81.7472 9.47028 81.591 9.47167C80.5497 9.47865 79.5089 9.48419 78.4676 9.46888C78.2113 9.46517 78.0479 9.53941 77.8807 9.74583C75.6579 12.4883 74.338 15.6344 73.9227 19.1706C73.8475 19.8052 73.6548 20.251 73.1604 20.6833C71.2936 22.3167 70.0721 24.4019 69.3599 26.8062C69.1937 27.3684 69.0452 27.9362 68.8857 28.5128C68.9599 28.5253 68.9918 28.536 69.024 28.536C69.9733 28.5369 70.9231 28.5341 71.8728 28.5401C72.0174 28.5411 72.0492 28.4729 72.0752 28.3477C72.2535 27.4909 72.5354 26.6702 72.9291 25.8923C73.329 25.1014 73.835 24.3856 74.393 23.7139C74.6681 24.1319 74.91 24.5498 75.1996 24.9293C76.3469 26.4323 78.1857 27.0715 79.8978 26.5844C81.7004 26.0714 82.8386 24.3861 82.6092 22.569C82.3461 20.4829 80.6736 18.7888 78.631 18.5782C78.1077 18.5244 77.5747 18.5704 77.0278 18.5704C77.4581 16.4212 78.2247 14.4051 79.4795 12.5542C79.6853 13.0181 79.8751 13.443 80.0631 13.8684C82.1939 18.684 84.3251 23.4991 86.4511 28.3171C86.5229 28.4794 86.6005 28.5476 86.7807 28.542C87.2385 28.5272 87.6972 28.5369 88.1555 28.5369H90.1282C90.0935 28.4414 90.0723 28.3704 90.0429 28.3031C87.3233 22.0917 84.6027 15.8812 81.8869 9.66838Z" fill="black"></path></g><mask id="mask11_39_68" style="mask-type:luminance" maskUnits="userSpaceOnUse" x="-11" y="-40" width="182" height="133"><path d="M-11 -39.4766H171V92.7652H-11V-39.4766Z" fill="white"></path></mask><g mask="url(#mask11_39_68)"><path d="M131.699 17.4269H121.445V9.49023H118.226V28.5262H121.456V20.5994H131.716V28.5244H134.935V9.49625H131.699V17.4269Z" fill="black"></path></g><mask id="mask12_39_68" style="mask-type:luminance" maskUnits="userSpaceOnUse" x="-11" y="-40" width="182" height="133"><path d="M-11 -39.4766H171V92.7652H-11V-39.4766Z" fill="white"></path></mask><g mask="url(#mask12_39_68)"><path d="M111.814 15.3941C111.43 13.1229 110.214 11.4367 108.297 10.2951C106.079 8.97347 103.666 8.61304 101.159 9.01939C98.2563 9.48977 96.0546 11.0777 94.7237 13.771C93.1456 16.9644 93.0916 20.283 94.4182 23.5747C95.4672 26.1785 97.3619 27.9343 100.011 28.7132C102.612 29.4786 105.178 29.2341 107.632 28.0656C109.455 27.1972 110.797 25.8209 111.5 23.848C111.78 23.0635 111.917 22.2532 111.901 21.4079H108.558C108.49 23.1512 107.634 24.348 106.199 25.1515C105.33 25.6386 104.384 25.8469 103.404 25.9359C100.748 26.1771 98.4533 24.8092 97.4265 22.2801C96.5283 20.0682 96.5437 17.8207 97.4679 15.6191C98.1469 14.0015 99.3058 12.846 100.967 12.3334C102.804 11.767 104.596 11.9799 106.288 12.9031C107.421 13.5214 108.192 14.4645 108.466 15.7838C108.52 16.0482 108.537 16.3214 108.572 16.6016H111.903C111.903 16.5139 111.908 16.4383 111.902 16.3641C111.876 16.0403 111.868 15.7128 111.814 15.3941Z" fill="black"></path></g></g></g></g><defs><clipPath id="clip0_39_68"><rect width="160" height="54.7945" fill="white"></rect></clipPath></defs></svg> 