<svg width="32" height="32" viewBox="0 0 32 32" fill="none" xmlns="http://www.w3.org/2000/svg">
  <path d="M4 23.3337V16.667C4 16.2723 4.11378 15.8519 4.34133 15.4057C4.56889 14.9594 4.89956 14.6243 5.33333 14.4003V11.3337C5.33333 10.5817 5.58978 9.94922 6.10267 9.43633C6.61556 8.92344 7.248 8.66699 8 8.66699H14C14.4596 8.66699 15 8.66699 15 8.66699L16 8.66699L17 8.66699C17 8.66699 17.5404 8.66699 18 8.66699H24C24.752 8.66699 25.3844 8.92344 25.8973 9.43633C26.4102 9.94922 26.6667 10.5817 26.6667 11.3337V14.4003C27.1004 14.6243 27.4311 14.9594 27.6587 15.4057C27.8862 15.8519 28 16.2723 28 16.667V23.3337H26.6667V20.667H5.33333V23.3337H4ZM6.66667 14.0003L25.3333 14.0003V11.3337C25.3333 11.3337 25.3682 10.7018 25 10.3337C24.6318 9.96547 24.3769 10.0012 24 10.0003C23.6231 9.99944 8 10.0003 8 10.0003C7.62222 10.0003 7.30578 10.1283 7.05067 10.3843C6.79556 10.6403 6.66756 10.9568 6.66667 11.3337V14.0003ZM5.33333 19.3337H26.6667V16.667C26.6667 16.2892 26.5387 15.9728 26.2827 15.7177C26.0267 15.4625 25.7102 15.3345 25.3333 15.3337H6.66667C6.28889 15.3337 5.97244 15.4617 5.71733 15.7177C5.46222 15.9737 5.33422 16.2901 5.33333 16.667V19.3337Z" fill="#FFFFFF"/>
</svg>
