<?xml version="1.0" encoding="UTF-8"?> <svg xmlns="http://www.w3.org/2000/svg" width="1976" height="1087" viewBox="0 0 1976 1087" fill="none"><mask id="mask0_39_31" style="mask-type:luminance" maskUnits="userSpaceOnUse" x="0" y="331" width="428" height="429"><path d="M427.625 331.721H0V759.425H427.625V331.721Z" fill="white"></path></mask><g mask="url(#mask0_39_31)"><path d="M44.4033 391.518C44.5941 391.518 44.7503 391.364 44.7503 391.171C44.7503 390.979 44.5941 390.822 44.4033 390.822C44.2106 390.822 44.0543 390.979 44.0543 391.171C44.0543 391.364 44.2106 391.518 44.4033 391.518Z" fill="#DB0D1A"></path><path d="M178.338 404.27V455.057H201.16V400.375V385.866V377.549C146.668 381.619 99.2534 411.524 71.4762 455.057H99.6071C119.245 430.282 146.668 412.055 178.338 404.27Z" fill="#DB0D1A"></path><path d="M44.4015 391.518C44.576 391.518 44.7504 391.346 44.7504 391.171C44.7504 390.997 44.576 390.822 44.4015 390.822C44.2271 390.822 44.0526 390.997 44.0526 391.171C44.0526 391.346 44.2271 391.518 44.4015 391.518Z" fill="#DB0D1A"></path><path d="M366.939 477.885H354.553H343.407H247.161V403.74C279.715 411.35 308.199 429.754 328.369 455.059H354.731C326.776 411.35 279.183 381.621 224.514 377.906V390.823V400.379V477.885V500.714H247.338H353.315C357.031 512.038 359.508 523.894 360.216 536.106H304.839H282.015H224.338V558.932H282.015V594.324H224.338V617.151H282.015V676.608C261.669 687.225 238.492 693.42 213.899 693.42C209.653 693.42 205.408 693.242 201.16 692.888V500.536V477.885H178.338H84.5669H71.1208H59.267C50.0666 498.767 44.9359 521.772 44.9359 546.015C44.9359 588.661 60.6835 627.592 86.8684 657.321V618.212C74.6591 596.978 67.7602 572.203 67.7602 546.015C67.7602 530.089 70.2376 514.87 75.0146 500.536H121.191V686.872C128.445 691.649 136.053 695.72 144.013 699.435V500.536H178.514V710.23C178.691 710.23 179.045 710.407 179.223 710.407C182.583 711.115 185.946 711.646 189.306 712.176C189.484 712.176 189.838 712.176 190.014 712.354C191.606 712.53 193.376 712.708 194.969 712.885C195.144 712.885 195.322 712.885 195.5 712.885C197.268 713.061 199.038 713.239 200.807 713.415C200.984 713.415 201.16 713.415 201.16 713.415C205.052 713.769 208.946 713.769 213.014 713.769C305.9 713.769 381.092 638.387 381.092 545.66C381.092 521.594 376.139 498.59 366.939 477.885ZM304.839 558.755H360.038C358.977 570.966 356.499 582.822 352.607 594.146H304.839V558.755ZM304.839 661.567V616.975H342.524C332.97 634.138 320.053 649.357 304.839 661.567Z" fill="#DB0D1A"></path><path d="M213.905 331.898C95.7209 331.898 0.181763 427.455 0.181763 545.485C0.181763 663.516 95.8968 759.249 213.905 759.249C331.914 759.249 427.63 663.516 427.63 545.485C427.63 427.455 331.914 331.898 213.905 331.898ZM213.905 736.422C108.458 736.422 23.0042 650.951 23.0042 545.485C23.0042 440.018 108.458 354.725 213.905 354.725C319.352 354.725 404.629 440.196 404.629 545.485C404.629 650.775 319.176 736.422 213.905 736.422Z" fill="#DB0D1A"></path></g><mask id="mask1_39_31" style="mask-type:luminance" maskUnits="userSpaceOnUse" x="538" y="405" width="1438" height="277"><path d="M1976 405.643H538.492V681.38H1976V405.643Z" fill="white"></path></mask><g mask="url(#mask1_39_31)"><path d="M664.195 678.687H631.41L636.162 527.618C636.267 523.921 636.582 513.308 637.165 495.831H634.471C633.786 503.7 632.676 514.101 631.093 526.933C630.407 531.315 622.434 581.9 607.124 678.687H595.985L572.651 526.933C571.858 522.338 570.645 511.937 568.955 495.831H566.263L567.634 527.618L571.701 678.687H538.493V408.337H577.033L599.311 553.333C599.734 556.502 600.314 562.575 601.001 571.603H602.372C602.69 567.01 603.165 560.884 603.745 553.333C604.063 550.429 611.4 502.062 625.708 408.337H664.247V678.687H664.195Z" fill="black"></path><path d="M772.632 678.687H739.162L735.783 628.684H711.127L707.748 678.687H673.961L705.743 408.337H741.221L772.632 678.687ZM731.402 592.829L726.015 491.131C725.7 485.745 725.33 476.61 725.012 463.78H722.321C722.109 469.958 721.739 479.092 721.318 491.131C721 497.204 719.047 531.103 715.563 592.829H731.454H731.402Z" fill="black"></path><path d="M830.914 678.687H779.917V643.89H788.363V443.134H779.917V408.337H830.914V443.134H822.468V643.89H830.914V678.687Z" fill="black"></path><path d="M932.436 619.919C932.436 641.673 925.626 657.778 912.006 668.233C902.873 675.202 893.475 678.687 883.814 678.687H843.269V408.337H883.814C916.23 408.337 932.489 429.616 932.489 472.228V619.919H932.436ZM899.336 620.922V472.915C899.336 463.463 898.491 456.809 896.801 452.955C894.109 446.883 888.618 443.819 880.435 443.819H876.053V644.578H880.435C886.507 644.578 891.311 642.042 894.795 636.974C897.856 632.486 899.336 627.098 899.336 620.922Z" fill="black"></path><path d="M1020.12 678.687H949.858V408.337H1017.75V443.134H982.958V516.794H1013.68V551.591H982.958V643.838H1020.12V678.634V678.687Z" fill="black"></path><path d="M1128.25 678.687H1093.09L1066.74 533.374C1065.85 528.781 1065.05 522.338 1064.37 514.101H1062.36L1062.68 534.06C1063.47 563.471 1064.47 611.68 1065.74 678.687H1033.33V408.337H1068.48L1094.83 551.961C1095.62 556.607 1096.41 563.578 1097.2 572.923H1099.21L1098.89 551.961L1095.83 408.337H1128.25V678.687Z" fill="black"></path><path d="M1177.08 678.688H1145.67V633.753H1177.08V678.688Z" fill="black"></path><path d="M1273.9 611.101C1273.9 657.991 1259.49 681.382 1230.66 681.382C1217.04 681.382 1206.54 675.311 1199.25 663.112C1193.08 652.868 1189.91 640.144 1189.8 624.936L1189.49 590.456H1222.27V624.566C1222.27 639.456 1225.33 646.85 1231.4 646.85C1237.05 646.85 1240.43 641.357 1241.54 630.269C1242.54 621.241 1242.12 609.307 1240.17 594.469C1238.58 581.637 1233.36 569.387 1224.43 557.823C1210.81 540.134 1203.16 529.733 1201.47 526.564C1193.71 512.043 1189.8 493.878 1189.8 472.176C1189.8 427.822 1204.43 405.592 1233.73 405.592C1259.65 405.592 1272.58 423.757 1272.58 459.979V489.02H1241.49V470.117C1241.49 459.979 1241.38 453.854 1241.17 451.689C1240.06 442.449 1237.21 437.907 1232.72 438.014C1225.28 438.119 1221.58 448.628 1221.58 469.432C1221.58 486.011 1226.07 500.849 1235.1 514.049C1243.55 525.773 1251.99 537.442 1260.44 549.006C1269.47 565.585 1273.96 586.232 1273.96 610.995L1273.9 611.101Z" fill="black"></path><path d="M1377.96 678.687H1343.85V553.968H1321.21V678.687H1287.1V408.337H1321.21V518.483H1343.85V408.337H1377.96V678.687Z" fill="black"></path><path d="M1486.4 678.687H1452.92L1449.55 628.684H1424.9L1421.51 678.687H1387.72L1419.51 408.337H1454.99L1486.4 678.687ZM1445.16 592.829L1439.77 491.131C1439.46 485.745 1439.1 476.61 1438.77 463.78H1436.09C1435.87 469.958 1435.51 479.092 1435.07 491.131C1434.76 497.204 1432.81 531.103 1429.32 592.829H1445.21H1445.16Z" fill="black"></path><path d="M1591.13 678.687H1555.99L1529.63 533.374C1528.73 528.781 1527.95 522.338 1527.26 514.101H1525.25L1525.57 534.06C1526.37 563.471 1527.37 611.68 1528.64 678.687H1496.21V408.337H1531.38L1557.73 551.961C1558.51 556.607 1559.31 563.578 1560.1 572.923H1562.1L1561.79 551.961L1558.72 408.337H1591.13V678.687Z" fill="black"></path><path d="M1700.95 678.687H1688.43L1681 662.476C1673.44 675.096 1663.88 681.379 1652.27 681.379C1640.66 681.379 1630.31 677.262 1622.55 669.025C1613.79 659.784 1609.34 646.795 1609.34 630.003V462.776C1609.34 447.252 1613.1 434.21 1620.64 423.754C1629.2 411.715 1641.19 405.696 1656.66 405.696C1686.17 405.696 1700.89 424.757 1700.89 462.828V495.249H1668.48V465.152C1668.48 447.357 1664.51 438.434 1656.66 438.434C1647.63 438.434 1643.13 446.987 1643.13 464.096V623.93C1643.13 639.243 1647.63 646.9 1656.66 646.9C1664.51 646.9 1668.48 639.243 1668.48 623.93V566.481H1657.66V530.998H1700.89V678.687H1700.95Z" fill="black"></path><path d="M1809.27 678.687H1775.18V553.968H1752.53V678.687H1718.41V408.337H1752.53V518.483H1775.18V408.337H1809.27V678.687Z" fill="black"></path><path d="M1917.71 678.687H1884.25L1880.88 628.684H1856.21L1852.84 678.687H1819.05L1850.82 408.337H1886.3L1917.71 678.687ZM1876.49 592.829L1871.1 491.131C1870.79 485.745 1870.41 476.61 1870.1 463.78H1867.4C1867.2 469.958 1866.82 479.092 1866.4 491.131C1866.1 497.204 1864.14 531.103 1860.65 592.829H1876.54H1876.49Z" fill="black"></path><path d="M1976 678.687H1925V643.89H1933.45V443.134H1925V408.337H1976V443.134H1967.55V643.89H1976V678.687Z" fill="black"></path></g></svg> 