<?xml version="1.0" encoding="UTF-8"?> <svg xmlns="http://www.w3.org/2000/svg" width="889" height="63" viewBox="0 0 889 63" fill="none"><g clip-path="url(#clip0_3781_239)"><path d="M29.3789 11.0357V61.0549H19.3089V11.0357H0.000610352V1.54694H48.7776V11.0266H29.388L29.3789 11.0357Z" fill="white"></path><path d="M112.652 61.0549V35.6251H84.6925V61.0549H74.6226V1.54694H84.6925V26.1363H112.652V1.54694H122.812V61.0549H112.652Z" fill="white"></path><path d="M154.703 61.0549V1.54694H191.476V10.9453H164.783V26.7237H188.963V35.8691H164.783V51.6475H191.476V61.0459H154.703V61.0549Z" fill="white"></path><path d="M268.861 37.803V61.0459H258.791V1.54694H280.866C292.283 1.54694 299.84 9.26445 299.84 19.675C299.84 30.0855 292.283 37.803 280.866 37.803H268.861ZM279.347 28.9107C285.729 28.9107 289.589 25.3863 289.589 19.7653C289.589 14.1444 285.729 10.4483 279.347 10.4483H268.852V28.9107H279.347Z" fill="white"></path><path d="M326.769 61.0549V1.54694H363.542V10.9453H336.848V26.7237H361.029V35.8691H336.848V51.6475H363.542V61.0459H326.769V61.0549Z" fill="white"></path><path d="M432.711 61.0549L403.333 15.9879V61.0549H393.263V1.54694H406.108L433.136 43.7583V1.54694H443.206V61.0549H432.711Z" fill="white"></path><path d="M498.429 11.0357V61.0549H488.359V11.0357H469.051V1.54694H517.828V11.0266H498.438L498.429 11.0357Z" fill="white"></path><path d="M581.7 61.0549V35.6251H553.74V61.0549H543.67V1.54694H553.74V26.1363H581.7V1.54694H591.86V61.0549H581.7Z" fill="white"></path><path d="M708.27 40.3243V1.54694H718.258V39.7369C718.258 48.1322 722.877 52.741 730.434 52.741C737.991 52.741 742.611 48.1231 742.611 39.7369V1.54694H752.68V40.3243C752.68 54.6749 742.945 62.311 730.434 62.311C717.924 62.311 708.27 54.6749 708.27 40.3243Z" fill="white"></path><path d="M813.961 18.3376C813.374 14.6415 810.264 9.19225 802.291 9.19225C796.244 9.19225 792.049 13.2227 792.049 17.7502C792.049 21.5276 794.4 24.3833 799.019 25.3864L807.579 27.1486C818.074 29.2451 823.697 35.8782 823.697 44.2735C823.697 53.5092 816.221 62.3202 802.626 62.3202C787.512 62.3202 780.551 52.5874 779.62 44.0205L789.021 41.3365C789.609 47.5448 794.056 53.2562 802.626 53.2562C809.758 53.2562 813.455 49.6504 813.455 45.0326C813.455 41.1738 810.598 38.0651 805.482 36.9717L797.084 35.2095C788.018 33.366 781.97 27.4016 781.97 18.5093C781.97 8.52352 791.118 0.299942 802.201 0.299942C816.221 0.299942 821.681 8.85788 823.019 15.491L813.952 18.3466L813.961 18.3376Z" fill="white"></path><path d="M851.809 61.0549V1.54694H888.582V10.9453H861.888V26.7237H886.069V35.8691H861.888V51.6475H888.582V61.0459H851.809V61.0549Z" fill="white"></path><path d="M678.909 42.1405C678.701 41.5621 678.512 40.9838 678.258 40.4144C676.658 36.7454 674.489 33.5193 671.75 30.763C669.011 27.9977 665.793 25.8198 662.096 24.2113C658.39 22.6117 654.466 21.8074 650.326 21.8074C646.186 21.8074 642.272 22.6117 638.593 24.2113C634.914 25.8108 631.714 27.9977 628.975 30.763C626.236 33.5283 624.085 36.7454 622.512 40.4144C622.268 40.9838 622.078 41.5621 621.87 42.1405C620.74 45.3124 620.144 48.638 620.144 52.1443C620.144 55.6506 620.758 59.0937 621.924 62.3108H678.846C680.03 59.0937 680.663 55.7139 680.663 52.1443C680.663 48.5747 680.048 45.3124 678.909 42.1405Z" fill="url(#paint0_linear_3781_239)"></path></g><defs><linearGradient id="paint0_linear_3781_239" x1="668.27" y1="3.00166" x2="644.49" y2="68.3699" gradientUnits="userSpaceOnUse"><stop stop-color="#FFF44F"></stop><stop offset="0.4" stop-color="#FF980E"></stop><stop offset="0.52" stop-color="#FF8A15"></stop><stop offset="0.74" stop-color="#FF662A"></stop><stop offset="1" stop-color="#FF3647"></stop></linearGradient><clipPath id="clip0_3781_239"><rect width="888.581" height="62.0202" fill="white" transform="translate(0 0.290833)"></rect></clipPath></defs></svg> 