<?xml version="1.0" encoding="UTF-8"?> <svg xmlns="http://www.w3.org/2000/svg" width="160" height="88" viewBox="0 0 160 88" fill="none"><g clip-path="url(#clip0_30_725)"><mask id="mask0_30_725" style="mask-type:luminance" maskUnits="userSpaceOnUse" x="0" y="0" width="160" height="88"><path d="M160 0H0V88H160V0Z" fill="white" style="fill:white;fill-opacity:1;"></path></mask><g mask="url(#mask0_30_725)"> </g><g clip-path="url(#clip1_30_725)"><path d="M29.46 42.8663C31.084 42.8663 31.4988 42.1595 31.4988 40.6125C31.4988 38.7289 30.6699 36.2737 29.2867 33.8513C28.0085 36.1722 27.2478 38.5267 27.2478 40.3767C27.2478 42.0588 27.7324 42.8663 29.46 42.8663ZM22.7899 40.3767C22.7899 36.711 24.5872 32.8087 26.4535 29.9162C24.0688 27.158 20.8891 24.5005 17.1918 24.5005V47.0708H12.3535V20.1616H17.1918C22.099 20.1616 26.2112 23.1214 29.2184 26.3169C32.1904 23.0549 36.2335 20.1616 40.9682 20.1616H45.8072V47.0708H40.9682V24.5684C37.9618 24.5684 34.8863 26.452 32.0171 29.8826C33.9876 32.7416 35.9575 36.8446 35.9575 40.6125C35.9575 44.7163 33.4341 47.2051 29.46 47.2051C25.347 47.2051 22.7899 44.6148 22.7899 40.3767Z" fill="black" style="fill:black;fill-opacity:1;"></path><path d="M74.942 41.0103C73.2348 42.772 71.0652 43.6678 68.49 43.6678C65.9352 43.6678 63.76 42.7654 62.0248 40.9892C60.2832 39.2136 59.4024 36.5561 59.4024 33.0817C59.4024 29.5503 60.256 26.879 61.9432 25.1523C63.6308 23.4184 65.834 22.5445 68.49 22.5445C71.1536 22.5445 73.3428 23.4118 75.0028 25.1312C76.6636 26.8447 77.5036 29.4875 77.5036 32.9839C77.5036 36.5496 76.6432 39.2487 74.942 41.0103ZM78.5748 22.6635C75.992 20.2367 72.5836 18.9993 68.4564 18.9993C65.5896 18.9993 63.1296 19.5242 61.1368 20.5521C59.172 21.5655 57.5452 23.1315 56.3256 25.2151C55.0984 27.2988 54.4756 30.0117 54.4756 33.2774C54.4756 37.752 55.8512 41.3111 58.576 43.8489C60.968 46.0792 64.2948 47.205 68.4832 47.205C72.624 47.205 75.9448 46.0654 78.3368 43.8146C81.0544 41.2695 82.4372 37.6681 82.4372 33.1021C82.4372 28.5925 81.1364 25.0823 78.5748 22.6635Z" fill="black" style="fill:black;fill-opacity:1;"></path><path d="M87.2529 20.2297H92.6097L102.286 42.362L111.963 20.2297H117.32L104.879 47.1389H99.6945L87.2529 20.2297Z" fill="black" style="fill:black;fill-opacity:1;"></path><path d="M123.455 20.2297H147.646V24.6701H128.294V28.9074C129.192 29.1096 130.021 29.5469 130.747 30.2194C131.403 30.8589 132.89 33.247 133.166 33.5156C133.304 33.6164 133.339 33.6164 133.374 33.6164C133.442 33.6164 133.477 33.6164 133.581 33.5156C133.858 33.247 135.377 30.8589 136.035 30.2194C136.968 29.3111 138.109 28.8403 139.387 28.8403C141.806 28.8403 143.05 30.4216 144.294 32.2709C144.571 32.7425 145.331 33.6164 145.366 33.6164V37.9903C144.086 37.9903 142.981 37.5187 142.013 36.6112C141.357 35.9709 139.871 33.5835 139.595 33.3142C139.456 33.1791 139.421 33.1791 139.387 33.1791C139.318 33.1791 139.283 33.1791 139.179 33.3142C138.904 33.5835 137.383 35.9709 136.725 36.6112C135.793 37.5187 134.652 37.9903 133.374 37.9903C132.129 37.9903 130.989 37.5187 130.021 36.6112C129.607 36.2067 128.846 35.097 128.294 34.2895V42.6986H147.646V47.1389H123.455V20.2297Z" fill="black" style="fill:black;fill-opacity:1;"></path><path d="M38.5874 69.7956L44.0753 58.662H46.682L52.29 69.7956H49.1859L47.9683 67.2915H42.6176L41.4514 69.7956H38.5874ZM43.5608 65.322H47.0422L45.2758 61.6165L43.5608 65.322Z" fill="black" style="fill:black;fill-opacity:1;"></path><path d="M55.0486 69.7956V60.7985H51.0527V58.662H61.6682V60.7985H57.6554V69.7956H55.0486Z" fill="black" style="fill:black;fill-opacity:1;"></path><path d="M67.623 69.7956V58.662H77.5182V60.7818H70.2126V63.2691H76.8494V65.2554H70.2126V69.7956H67.623Z" fill="black" style="fill:black;fill-opacity:1;"></path><path d="M79.1284 69.7956V58.662H81.7524V69.7956H79.1284Z" fill="black" style="fill:black;fill-opacity:1;"></path><path d="M91.1671 69.7956H88.2003L82.9355 58.662H86.0907L89.7611 66.8243L93.2595 58.662H96.1919L91.1671 69.7956Z" fill="black" style="fill:black;fill-opacity:1;"></path><path d="M97.3667 69.7956V58.662H107.673V60.7985H99.9731V63.0686H106.747V65.0549H99.9731V67.659H107.673V69.7956H97.3667Z" fill="black" style="fill:black;fill-opacity:1;"></path><path d="M125.578 64.4301L114.553 69.7952V59.0649L125.578 64.4301Z" fill="black" style="fill:black;fill-opacity:1;"></path></g></g><defs><clipPath id="clip0_30_725"><rect width="160" height="88" fill="white" style="fill:white;fill-opacity:1;"></rect></clipPath><clipPath id="clip1_30_725"><rect width="136" height="51" fill="white" style="fill:white;fill-opacity:1;" transform="translate(12 19)"></rect></clipPath></defs></svg> 