<svg width="75" height="75" viewBox="0 0 75 75" fill="none" xmlns="http://www.w3.org/2000/svg">
						<rect width="75" height="75" rx="17" fill="black"></rect>
						<path d="M49.8334 22.3C48.1249 20.3488 47.1831 17.8435 47.1834 15.25H39.4584V46.25C39.4001 47.928 38.6922 49.5177 37.4842 50.6837C36.2761 51.8498 34.6624 52.501 32.9834 52.5C29.4334 52.5 26.4834 49.6 26.4834 46C26.4834 41.7 30.6334 38.475 34.9084 39.8V31.9C26.2834 30.75 18.7334 37.45 18.7334 46C18.7334 54.325 25.6334 60.25 32.9584 60.25C40.8084 60.25 47.1834 53.875 47.1834 46V30.275C50.3159 32.5246 54.0768 33.7316 57.9334 33.725V26C57.9334 26 53.2334 26.225 49.8334 22.3Z" fill="white"></path>
					</svg>